<?xml version="1.0" encoding="utf-8"?>
<!-- Generator: Adobe Illustrator 28.1.0, SVG Export Plug-In . SVG Version: 6.00 Build 0)  -->
<svg version="1.1" id="Layer_1" xmlns="http://www.w3.org/2000/svg" xmlns:xlink="http://www.w3.org/1999/xlink" x="0px" y="0px"
	 viewBox="0 0 864 153.6" style="enable-background:new 0 0 864 153.6;" xml:space="preserve">
<style type="text/css">
	.st0{fill:#002B49;}
	.st1{fill:#00AFAA;}
</style>
<g>
	<g>
		<path class="st0" d="M314.6,108.6l6.6-1.5c14.1-3.2,16.6-7.2,16.6-18.6V28.4c0-11.4-2.5-15.4-16.6-18.6l-6.6-1.5V5.5h80.2
			c14.6,0,28.9,1.1,38.9,5.4c8.9,3.8,14,10.8,14,19.1c0,11.5-13.4,21.1-39.3,24.3v0.6c29.5,2.3,46,12,46,27.7
			c0,19.7-19.4,28.9-52.9,28.9h-86.8V108.6z M387.1,53c17.5,0,27.5-8.5,27.5-23.1c0-14.6-10-20.4-27.5-20.4h-17.1V53H387.1z
			 M392.2,107.4c19.1,0,29-10.8,29-26.4c0-15.8-9.7-24-27.5-24h-23.7v50.4H392.2z"/>
		<path class="st0" d="M447.6,108.6l6.6-1.5c14.1-3.2,16.6-7.2,16.6-18.6V28.4c0-11.4-2.5-15.4-16.6-18.6l-6.6-1.5V5.5h83
			c14.6,0,29,1.4,38.9,6.6c8.9,4.8,14,12.1,14,21.5c0,10.9-5.7,17.5-14.6,21.8c-9.8,4.8-23.7,7.5-38.3,7.5H528
			c7.7,4.9,15.5,7.2,23.7,7.2c3.8,0,7.7-0.5,11.7-1.5l14,24.4c5.1,8.9,8.1,12.9,16.9,14.9l2.6,0.6v2.8h-45.6L523.6,63h-20.4v25.5
			c0,11.4,2.5,15.4,16.6,18.6l6.6,1.5v2.8h-78.7V108.6z M522.9,59.3c17.5,0,27.5-8.1,27.5-25.7c0-17.5-10-24.4-27.5-24.4h-19.8v50.1
			H522.9z"/>
		<path class="st0" d="M597.5,108.6l2.6-0.6c9.5-2.3,15.2-11.5,22.4-25.1l43-80.7h2.2l55.5,95.1c2.4,4.3,5.2,6.9,8.4,8.5
			c2,1.1,6.6,2.7,6.6,2.7v2.8h-68.6v-2.8l5.7-1.1c7.4-1.4,11.2-3.7,11.2-7.8c0-2.2-0.9-4.6-2.6-7.5l-6.9-11.8h-48.6l-0.3,0.6
			c-1.7,3.2-3.1,8-3.1,11.5c0,7.5,4.8,12.9,13.8,15.1l4.5,1.1v2.8h-45.8V108.6z M674.8,76.7l-23.4-40l-21.1,40H674.8z"/>
		<path class="st0" d="M738.9,108.6l6.6-1.5c14.1-3.2,16.6-7.2,16.6-18.6V28.4c0-11.4-2.5-15.4-16.6-18.6l-6.6-1.5V5.5H864v37.8
			h-2.8l-1.7-6.1c-4.2-14.9-16.3-27.7-33.8-27.7h-31.4v46.4h6.9c13.2,0,20.4-2.8,24.4-14.9l3.2-10h2.5v53.5H829l-3.2-10
			c-4-12.1-11.2-14.9-24.4-14.9h-6.9v28.9c0,11.4,2.3,15.8,16.6,18.6l8.1,1.5v2.8h-80.2V108.6z"/>
	</g>
	<g>
		<path class="st0" d="M358.5,151.8c-1.1,1.1-2.6,1.6-4.4,1.6h-5.6c-0.1,0-0.2,0-0.3-0.1c-0.1-0.1-0.1-0.2-0.1-0.3v-21.5
			c0-0.1,0-0.2,0.1-0.3c0.1-0.1,0.2-0.1,0.3-0.1h5c2,0,3.6,0.5,4.7,1.5c1.1,1,1.7,2.5,1.7,4.4c0,2.2-0.8,3.7-2.3,4.7
			c-0.1,0.1-0.1,0.1-0.1,0.2c0.8,0.5,1.5,1.2,1.9,2.1c0.5,0.9,0.7,1.9,0.7,3.2C360.2,149.2,359.6,150.8,358.5,151.8z M351.8,134.5
			v5.9c0,0.1,0.1,0.2,0.2,0.2h1.6c0.9,0,1.5-0.3,2-0.8c0.5-0.5,0.7-1.3,0.7-2.3c0-1-0.2-1.8-0.7-2.3c-0.5-0.6-1.2-0.8-2-0.8H352
			C351.8,134.3,351.8,134.4,351.8,134.5z M355.8,149.3c0.5-0.6,0.7-1.4,0.7-2.5c0-1.1-0.2-2-0.7-2.6c-0.5-0.6-1.2-0.9-2-0.9H352
			c-0.1,0-0.2,0.1-0.2,0.2v6.6c0,0.1,0.1,0.2,0.2,0.2h1.8C354.6,150.2,355.3,149.9,355.8,149.3z"/>
		<path class="st0" d="M376.3,153l-0.6-3.3c0-0.1-0.1-0.2-0.2-0.2h-4.6c-0.1,0-0.2,0.1-0.2,0.2l-0.6,3.3c0,0.2-0.2,0.3-0.4,0.3h-2.9
			c-0.3,0-0.4-0.1-0.3-0.4l4.7-21.5c0-0.2,0.2-0.3,0.4-0.3h3.4c0.2,0,0.4,0.1,0.4,0.3l4.7,21.5v0.1c0,0.2-0.1,0.3-0.3,0.3h-3
			C376.5,153.4,376.4,153.3,376.3,153z M371.5,146.7h3.5c0.1,0,0.2-0.1,0.2-0.2l-1.8-10c0-0.1-0.1-0.1-0.1-0.1s-0.1,0-0.1,0.1
			l-1.8,10C371.3,146.6,371.3,146.7,371.5,146.7z"/>
		<path class="st0" d="M397.2,131.3c0.1,0.1,0.1,0.2,0.1,0.3v2.4c0,0.1,0,0.2-0.1,0.3c-0.1,0.1-0.2,0.1-0.3,0.1h-4
			c-0.1,0-0.2,0.1-0.2,0.2V153c0,0.1,0,0.2-0.1,0.3c-0.1,0.1-0.2,0.1-0.3,0.1h-2.9c-0.1,0-0.2,0-0.3-0.1c-0.1-0.1-0.1-0.2-0.1-0.3
			v-18.5c0-0.1-0.1-0.2-0.2-0.2h-3.8c-0.1,0-0.2,0-0.3-0.1c-0.1-0.1-0.1-0.2-0.1-0.3v-2.4c0-0.1,0-0.2,0.1-0.3
			c0.1-0.1,0.2-0.1,0.3-0.1H397C397.1,131.2,397.2,131.2,397.2,131.3z"/>
		<path class="st0" d="M406,152c-1.1-1.1-1.7-2.6-1.7-4.4V137c0-1.8,0.6-3.3,1.7-4.4c1.1-1.1,2.6-1.7,4.4-1.7c1.8,0,3.3,0.6,4.4,1.7
			c1.1,1.1,1.7,2.6,1.7,4.4v10.7c0,1.8-0.6,3.3-1.7,4.4c-1.1,1.1-2.6,1.7-4.4,1.7C408.5,153.6,407.1,153.1,406,152z M412.1,149.7
			c0.4-0.5,0.7-1.1,0.7-2v-11c0-0.8-0.2-1.5-0.7-2c-0.4-0.5-1-0.7-1.7-0.7c-0.7,0-1.3,0.2-1.7,0.7c-0.4,0.5-0.7,1.1-0.7,2v11
			c0,0.8,0.2,1.5,0.7,2c0.4,0.5,1,0.7,1.7,0.7C411.1,150.5,411.7,150.2,412.1,149.7z"/>
		<path class="st0" d="M433.2,131.3c0.1-0.1,0.2-0.1,0.3-0.1h2.9c0.1,0,0.2,0,0.3,0.1c0.1,0.1,0.1,0.2,0.1,0.3V153
			c0,0.1,0,0.2-0.1,0.3c-0.1,0.1-0.2,0.1-0.3,0.1h-3.3c-0.2,0-0.3-0.1-0.4-0.3l-4.7-13.5c0-0.1-0.1-0.1-0.1-0.1s-0.1,0-0.1,0.1
			l0,13.4c0,0.1,0,0.2-0.1,0.3c-0.1,0.1-0.2,0.1-0.3,0.1h-2.9c-0.1,0-0.2,0-0.3-0.1c-0.1-0.1-0.1-0.2-0.1-0.3v-21.5
			c0-0.1,0-0.2,0.1-0.3c0.1-0.1,0.2-0.1,0.3-0.1h3.3c0.2,0,0.3,0.1,0.4,0.3l4.8,13.4c0,0.1,0.1,0.1,0.1,0.1s0.1,0,0.1-0.1v-13.3
			C433.1,131.5,433.1,131.4,433.2,131.3z"/>
		<path class="st0" d="M464.4,153.1l-2.7-9.1c0-0.1-0.1-0.1-0.2-0.1h-1.7c-0.1,0-0.2,0.1-0.2,0.2v9c0,0.1,0,0.2-0.1,0.3
			c-0.1,0.1-0.2,0.1-0.3,0.1h-2.9c-0.1,0-0.2,0-0.3-0.1c-0.1-0.1-0.1-0.2-0.1-0.3v-21.5c0-0.1,0-0.2,0.1-0.3
			c0.1-0.1,0.2-0.1,0.3-0.1h6c1.1,0,2.1,0.3,3,0.8c0.9,0.5,1.5,1.3,2,2.3s0.7,2.1,0.7,3.4c0,1.3-0.3,2.4-0.8,3.4
			c-0.5,1-1.2,1.7-2.1,2.2c-0.1,0-0.1,0.1-0.1,0.2l3.1,9.6c0,0,0,0.1,0,0.2c0,0.2-0.1,0.3-0.3,0.3h-3
			C464.6,153.4,464.5,153.3,464.4,153.1z M459.7,134.5v6.3c0,0.1,0.1,0.2,0.2,0.2h1.9c0.8,0,1.4-0.3,1.9-0.9
			c0.5-0.6,0.7-1.4,0.7-2.4c0-1-0.2-1.8-0.7-2.4c-0.5-0.6-1.1-0.9-1.9-0.9h-1.9C459.8,134.3,459.7,134.4,459.7,134.5z"/>
		<path class="st0" d="M476.9,152c-1.1-1.1-1.7-2.6-1.7-4.4V137c0-1.8,0.6-3.3,1.7-4.4c1.1-1.1,2.6-1.7,4.4-1.7s3.3,0.6,4.4,1.7
			c1.1,1.1,1.7,2.6,1.7,4.4v10.7c0,1.8-0.6,3.3-1.7,4.4c-1.1,1.1-2.6,1.7-4.4,1.7S478,153.1,476.9,152z M483.1,149.7
			c0.4-0.5,0.7-1.1,0.7-2v-11c0-0.8-0.2-1.5-0.7-2c-0.4-0.5-1-0.7-1.7-0.7c-0.7,0-1.3,0.2-1.7,0.7c-0.4,0.5-0.7,1.1-0.7,2v11
			c0,0.8,0.2,1.5,0.7,2c0.4,0.5,1,0.7,1.7,0.7C482,150.5,482.6,150.2,483.1,149.7z"/>
		<path class="st0" d="M496.6,151.9c-1.1-1.2-1.6-2.7-1.6-4.6v-15.7c0-0.1,0-0.2,0.1-0.3c0.1-0.1,0.2-0.1,0.3-0.1h2.9
			c0.1,0,0.2,0,0.3,0.1c0.1,0.1,0.1,0.2,0.1,0.3v16.1c0,0.8,0.2,1.5,0.6,2.1s1,0.8,1.7,0.8s1.3-0.3,1.7-0.8c0.4-0.5,0.6-1.2,0.6-2.1
			v-16.1c0-0.1,0-0.2,0.1-0.3c0.1-0.1,0.2-0.1,0.3-0.1h2.9c0.1,0,0.2,0,0.3,0.1c0.1,0.1,0.1,0.2,0.1,0.3v15.7c0,1.9-0.6,3.5-1.7,4.6
			c-1.1,1.2-2.6,1.8-4.3,1.8C499.1,153.6,497.7,153.1,496.6,151.9z"/>
		<path class="st0" d="M516.2,152.1c-1.1-1-1.6-2.4-1.6-4.2v-11.2c0-1.7,0.5-3.1,1.6-4.2c1.1-1,2.5-1.6,4.3-1.6
			c1.8,0,3.3,0.5,4.4,1.6c1.1,1,1.7,2.4,1.7,4.2v1.2c0,0.1,0,0.2-0.1,0.3c-0.1,0.1-0.2,0.1-0.3,0.1h-2.9c-0.1,0-0.2,0-0.3-0.1
			c-0.1-0.1-0.1-0.2-0.1-0.3v-1.3c0-0.8-0.2-1.4-0.7-1.8c-0.4-0.5-1-0.7-1.7-0.7c-0.7,0-1.3,0.2-1.7,0.7c-0.4,0.5-0.6,1.1-0.6,1.8
			v11.3c0,0.8,0.2,1.4,0.6,1.8c0.4,0.5,1,0.7,1.7,0.7c0.7,0,1.3-0.2,1.7-0.7c0.4-0.5,0.7-1.1,0.7-1.8v-3c0-0.1-0.1-0.2-0.2-0.2h-1.9
			c-0.1,0-0.2,0-0.3-0.1c-0.1-0.1-0.1-0.2-0.1-0.3V142c0-0.1,0-0.2,0.1-0.3c0.1-0.1,0.2-0.1,0.3-0.1h5.4c0.1,0,0.2,0,0.3,0.1
			c0.1,0.1,0.1,0.2,0.1,0.3v5.9c0,1.7-0.6,3.1-1.7,4.2c-1.1,1-2.6,1.6-4.4,1.6C518.7,153.6,517.3,153.1,516.2,152.1z"/>
		<path class="st0" d="M545.1,134.2c-0.1,0.1-0.2,0.1-0.3,0.1H538c-0.1,0-0.2,0.1-0.2,0.2v6c0,0.1,0.1,0.2,0.2,0.2h4.1
			c0.1,0,0.2,0,0.3,0.1c0.1,0.1,0.1,0.2,0.1,0.3v2.4c0,0.1,0,0.2-0.1,0.3c-0.1,0.1-0.2,0.1-0.3,0.1H538c-0.1,0-0.2,0.1-0.2,0.2v6
			c0,0.1,0.1,0.2,0.2,0.2h6.9c0.1,0,0.2,0,0.3,0.1c0.1,0.1,0.1,0.2,0.1,0.3v2.4c0,0.1,0,0.2-0.1,0.3c-0.1,0.1-0.2,0.1-0.3,0.1h-10.3
			c-0.1,0-0.2,0-0.3-0.1c-0.1-0.1-0.1-0.2-0.1-0.3v-21.5c0-0.1,0-0.2,0.1-0.3c0.1-0.1,0.2-0.1,0.3-0.1h10.3c0.1,0,0.2,0,0.3,0.1
			c0.1,0.1,0.1,0.2,0.1,0.3v2.4C545.2,134.1,545.2,134.2,545.1,134.2z"/>
		<path class="st0" d="M572.4,153l-0.6-3.3c0-0.1-0.1-0.2-0.2-0.2H567c-0.1,0-0.2,0.1-0.2,0.2l-0.6,3.3c0,0.2-0.2,0.3-0.4,0.3h-2.9
			c-0.3,0-0.4-0.1-0.3-0.4l4.7-21.5c0-0.2,0.2-0.3,0.4-0.3h3.4c0.2,0,0.4,0.1,0.4,0.3l4.7,21.5v0.1c0,0.2-0.1,0.3-0.3,0.3h-3
			C572.6,153.4,572.4,153.3,572.4,153z M567.5,146.7h3.5c0.1,0,0.2-0.1,0.2-0.2l-1.8-10c0-0.1-0.1-0.1-0.1-0.1s-0.1,0-0.1,0.1
			l-1.8,10C567.4,146.6,567.4,146.7,567.5,146.7z"/>
		<path class="st0" d="M591.7,153.1L589,144c0-0.1-0.1-0.1-0.2-0.1h-1.7c-0.1,0-0.2,0.1-0.2,0.2v9c0,0.1,0,0.2-0.1,0.3
			c-0.1,0.1-0.2,0.1-0.3,0.1h-2.9c-0.1,0-0.2,0-0.3-0.1c-0.1-0.1-0.1-0.2-0.1-0.3v-21.5c0-0.1,0-0.2,0.1-0.3
			c0.1-0.1,0.2-0.1,0.3-0.1h6c1.1,0,2.1,0.3,3,0.8c0.9,0.5,1.5,1.3,2,2.3s0.7,2.1,0.7,3.4c0,1.3-0.3,2.4-0.8,3.4
			c-0.5,1-1.2,1.7-2.1,2.2c-0.1,0-0.1,0.1-0.1,0.2l3.1,9.6c0,0,0,0.1,0,0.2c0,0.2-0.1,0.3-0.3,0.3h-3
			C591.9,153.4,591.7,153.3,591.7,153.1z M587,134.5v6.3c0,0.1,0.1,0.2,0.2,0.2h1.9c0.8,0,1.4-0.3,1.9-0.9c0.5-0.6,0.7-1.4,0.7-2.4
			c0-1-0.2-1.8-0.7-2.4c-0.5-0.6-1.1-0.9-1.9-0.9h-1.9C587,134.3,587,134.4,587,134.5z"/>
		<path class="st0" d="M613.7,134.2c-0.1,0.1-0.2,0.1-0.3,0.1h-6.9c-0.1,0-0.2,0.1-0.2,0.2v6c0,0.1,0.1,0.2,0.2,0.2h4.1
			c0.1,0,0.2,0,0.3,0.1s0.1,0.2,0.1,0.3v2.4c0,0.1,0,0.2-0.1,0.3s-0.2,0.1-0.3,0.1h-4.1c-0.1,0-0.2,0.1-0.2,0.2v6
			c0,0.1,0.1,0.2,0.2,0.2h6.9c0.1,0,0.2,0,0.3,0.1c0.1,0.1,0.1,0.2,0.1,0.3v2.4c0,0.1,0,0.2-0.1,0.3c-0.1,0.1-0.2,0.1-0.3,0.1h-10.3
			c-0.1,0-0.2,0-0.3-0.1c-0.1-0.1-0.1-0.2-0.1-0.3v-21.5c0-0.1,0-0.2,0.1-0.3c0.1-0.1,0.2-0.1,0.3-0.1h10.3c0.1,0,0.2,0,0.3,0.1
			c0.1,0.1,0.1,0.2,0.1,0.3v2.4C613.8,134.1,613.8,134.2,613.7,134.2z"/>
		<path class="st0" d="M630.5,153l-0.6-3.3c0-0.1-0.1-0.2-0.2-0.2h-4.6c-0.1,0-0.2,0.1-0.2,0.2l-0.6,3.3c0,0.2-0.2,0.3-0.4,0.3H621
			c-0.3,0-0.4-0.1-0.3-0.4l4.7-21.5c0-0.2,0.2-0.3,0.4-0.3h3.4c0.2,0,0.4,0.1,0.4,0.3l4.7,21.5v0.1c0,0.2-0.1,0.3-0.3,0.3h-3
			C630.7,153.4,630.5,153.3,630.5,153z M625.6,146.7h3.5c0.1,0,0.2-0.1,0.2-0.2l-1.8-10c0-0.1-0.1-0.1-0.1-0.1c0,0-0.1,0-0.1,0.1
			l-1.8,10C625.4,146.6,625.5,146.7,625.6,146.7z"/>
		<path class="st0" d="M663.2,134.2c-0.1,0.1-0.2,0.1-0.3,0.1h-6.8c-0.1,0-0.2,0.1-0.2,0.2v6c0,0.1,0.1,0.2,0.2,0.2h4
			c0.1,0,0.2,0,0.3,0.1s0.1,0.2,0.1,0.3v2.4c0,0.1,0,0.2-0.1,0.3s-0.2,0.1-0.3,0.1h-4c-0.1,0-0.2,0.1-0.2,0.2v9c0,0.1,0,0.2-0.1,0.3
			c-0.1,0.1-0.2,0.1-0.3,0.1h-2.9c-0.1,0-0.2,0-0.3-0.1c-0.1-0.1-0.1-0.2-0.1-0.3v-21.5c0-0.1,0-0.2,0.1-0.3
			c0.1-0.1,0.2-0.1,0.3-0.1h10.3c0.1,0,0.2,0,0.3,0.1c0.1,0.1,0.1,0.2,0.1,0.3v2.4C663.3,134.1,663.2,134.2,663.2,134.2z"/>
		<path class="st0" d="M671.7,152c-1.1-1.1-1.7-2.6-1.7-4.4V137c0-1.8,0.6-3.3,1.7-4.4c1.1-1.1,2.6-1.7,4.4-1.7
			c1.8,0,3.3,0.6,4.4,1.7c1.1,1.1,1.7,2.6,1.7,4.4v10.7c0,1.8-0.6,3.3-1.7,4.4c-1.1,1.1-2.6,1.7-4.4,1.7
			C674.3,153.6,672.8,153.1,671.7,152z M677.8,149.7c0.4-0.5,0.7-1.1,0.7-2v-11c0-0.8-0.2-1.5-0.7-2c-0.4-0.5-1-0.7-1.7-0.7
			c-0.7,0-1.3,0.2-1.7,0.7c-0.4,0.5-0.7,1.1-0.7,2v11c0,0.8,0.2,1.5,0.7,2c0.4,0.5,1,0.7,1.7,0.7
			C676.8,150.5,677.4,150.2,677.8,149.7z"/>
		<path class="st0" d="M691.4,151.9c-1.1-1.2-1.6-2.7-1.6-4.6v-15.7c0-0.1,0-0.2,0.1-0.3c0.1-0.1,0.2-0.1,0.3-0.1h2.9
			c0.1,0,0.2,0,0.3,0.1c0.1,0.1,0.1,0.2,0.1,0.3v16.1c0,0.8,0.2,1.5,0.6,2.1s1,0.8,1.7,0.8c0.7,0,1.3-0.3,1.7-0.8
			c0.4-0.5,0.6-1.2,0.6-2.1v-16.1c0-0.1,0-0.2,0.1-0.3c0.1-0.1,0.2-0.1,0.3-0.1h2.9c0.1,0,0.2,0,0.3,0.1c0.1,0.1,0.1,0.2,0.1,0.3
			v15.7c0,1.9-0.6,3.5-1.7,4.6c-1.1,1.2-2.6,1.8-4.3,1.8C693.9,153.6,692.5,153.1,691.4,151.9z"/>
		<path class="st0" d="M718.7,131.3c0.1-0.1,0.2-0.1,0.3-0.1h2.9c0.1,0,0.2,0,0.3,0.1c0.1,0.1,0.1,0.2,0.1,0.3V153
			c0,0.1,0,0.2-0.1,0.3c-0.1,0.1-0.2,0.1-0.3,0.1h-3.3c-0.2,0-0.3-0.1-0.4-0.3l-4.7-13.5c0-0.1-0.1-0.1-0.1-0.1s-0.1,0-0.1,0.1
			l0,13.4c0,0.1,0,0.2-0.1,0.3c-0.1,0.1-0.2,0.1-0.3,0.1h-2.9c-0.1,0-0.2,0-0.3-0.1c-0.1-0.1-0.1-0.2-0.1-0.3v-21.5
			c0-0.1,0-0.2,0.1-0.3c0.1-0.1,0.2-0.1,0.3-0.1h3.3c0.2,0,0.3,0.1,0.4,0.3l4.8,13.4c0,0.1,0.1,0.1,0.1,0.1s0.1,0,0.1-0.1v-13.3
			C718.6,131.5,718.6,131.4,718.7,131.3z"/>
		<path class="st0" d="M730.2,153.3c-0.1-0.1-0.1-0.2-0.1-0.3v-21.5c0-0.1,0-0.2,0.1-0.3c0.1-0.1,0.2-0.1,0.3-0.1h5.4
			c1.8,0,3.3,0.6,4.4,1.7c1.1,1.1,1.6,2.6,1.6,4.4v10.1c0,1.8-0.5,3.3-1.6,4.4c-1.1,1.1-2.5,1.7-4.4,1.7h-5.4
			C730.4,153.4,730.3,153.4,730.2,153.3z M734,150.2l1.9,0c0.7,0,1.3-0.3,1.7-0.8c0.4-0.6,0.7-1.3,0.7-2.2v-9.6c0-1-0.2-1.7-0.7-2.3
			c-0.4-0.6-1-0.8-1.8-0.8H734c-0.1,0-0.2,0.1-0.2,0.2v15.6C733.8,150.2,733.9,150.2,734,150.2z"/>
		<path class="st0" d="M758.4,153l-0.6-3.3c0-0.1-0.1-0.2-0.2-0.2h-4.6c-0.1,0-0.2,0.1-0.2,0.2l-0.6,3.3c0,0.2-0.2,0.3-0.4,0.3h-2.9
			c-0.3,0-0.4-0.1-0.3-0.4l4.7-21.5c0-0.2,0.2-0.3,0.4-0.3h3.4c0.2,0,0.4,0.1,0.4,0.3l4.7,21.5v0.1c0,0.2-0.1,0.3-0.3,0.3h-3
			C758.5,153.4,758.4,153.3,758.4,153z M753.5,146.7h3.5c0.1,0,0.2-0.1,0.2-0.2l-1.8-10c0-0.1-0.1-0.1-0.1-0.1c0,0-0.1,0-0.1,0.1
			l-1.8,10C753.3,146.6,753.3,146.7,753.5,146.7z"/>
		<path class="st0" d="M779.3,131.3c0.1,0.1,0.1,0.2,0.1,0.3v2.4c0,0.1,0,0.2-0.1,0.3c-0.1,0.1-0.2,0.1-0.3,0.1h-4
			c-0.1,0-0.2,0.1-0.2,0.2V153c0,0.1,0,0.2-0.1,0.3c-0.1,0.1-0.2,0.1-0.3,0.1h-2.9c-0.1,0-0.2,0-0.3-0.1c-0.1-0.1-0.1-0.2-0.1-0.3
			v-18.5c0-0.1-0.1-0.2-0.2-0.2h-3.8c-0.1,0-0.2,0-0.3-0.1c-0.1-0.1-0.1-0.2-0.1-0.3v-2.4c0-0.1,0-0.2,0.1-0.3
			c0.1-0.1,0.2-0.1,0.3-0.1H779C779.1,131.2,779.2,131.2,779.3,131.3z"/>
		<path class="st0" d="M786.8,153.3c-0.1-0.1-0.1-0.2-0.1-0.3v-21.5c0-0.1,0-0.2,0.1-0.3c0.1-0.1,0.2-0.1,0.3-0.1h2.9
			c0.1,0,0.2,0,0.3,0.1c0.1,0.1,0.1,0.2,0.1,0.3V153c0,0.1,0,0.2-0.1,0.3c-0.1,0.1-0.2,0.1-0.3,0.1h-2.9
			C787,153.4,786.9,153.4,786.8,153.3z"/>
		<path class="st0" d="M799.7,152c-1.1-1.1-1.7-2.6-1.7-4.4V137c0-1.8,0.6-3.3,1.7-4.4c1.1-1.1,2.6-1.7,4.4-1.7
			c1.8,0,3.3,0.6,4.4,1.7c1.1,1.1,1.7,2.6,1.7,4.4v10.7c0,1.8-0.6,3.3-1.7,4.4c-1.1,1.1-2.6,1.7-4.4,1.7
			C802.3,153.6,800.8,153.1,799.7,152z M805.8,149.7c0.4-0.5,0.7-1.1,0.7-2v-11c0-0.8-0.2-1.5-0.7-2c-0.4-0.5-1-0.7-1.7-0.7
			c-0.7,0-1.3,0.2-1.7,0.7c-0.4,0.5-0.7,1.1-0.7,2v11c0,0.8,0.2,1.5,0.7,2c0.4,0.5,1,0.7,1.7,0.7
			C804.8,150.5,805.4,150.2,805.8,149.7z"/>
		<path class="st0" d="M826.9,131.3c0.1-0.1,0.2-0.1,0.3-0.1h2.9c0.1,0,0.2,0,0.3,0.1c0.1,0.1,0.1,0.2,0.1,0.3V153
			c0,0.1,0,0.2-0.1,0.3c-0.1,0.1-0.2,0.1-0.3,0.1h-3.3c-0.2,0-0.3-0.1-0.4-0.3l-4.7-13.5c0-0.1-0.1-0.1-0.1-0.1s-0.1,0-0.1,0.1
			l0,13.4c0,0.1,0,0.2-0.1,0.3c-0.1,0.1-0.2,0.1-0.3,0.1h-2.9c-0.1,0-0.2,0-0.3-0.1c-0.1-0.1-0.1-0.2-0.1-0.3v-21.5
			c0-0.1,0-0.2,0.1-0.3c0.1-0.1,0.2-0.1,0.3-0.1h3.3c0.2,0,0.3,0.1,0.4,0.3l4.8,13.4c0,0.1,0.1,0.1,0.1,0.1s0.1,0,0.1-0.1v-13.3
			C826.8,131.5,826.9,131.4,826.9,131.3z"/>
	</g>
	<g>
		<g>
			<path class="st1" d="M0,138.4v4.5c5.7,0,10.3,4.6,10.3,10.3h4.5C14.9,145.1,8.2,138.4,0,138.4z"/>
			<path class="st1" d="M0,125.9v4.5c10.5,0,19.4,7.1,22,16.8c0.2-3,0.5-6,0.9-8.9C18,130.8,9.6,125.9,0,125.9z"/>
			<path class="st1" d="M31.6,128.8c-0.5,2-1,4-1.3,6c2.1,3.4,3.6,7.2,4.5,11.3c0.3-3.4,0.7-6.8,1.4-10.1
				C34.9,133.4,33.4,131,31.6,128.8z"/>
			<path class="st1" d="M0,113.3v4.5c9.7,0,18.5,3.9,25,10.3c0.4-1.7,0.9-3.3,1.4-4.9C19.3,117,10.1,113.3,0,113.3z"/>
			<path class="st1" d="M0,100.7v4.5c11,0,21.1,3.7,29.1,9.9c0.6-1.5,1.2-2.9,1.8-4.3C22.3,104.4,11.6,100.7,0,100.7z"/>
			<path class="st1" d="M45.4,126.7c-0.7,2.1-1.3,4.2-1.8,6.3c1.8,3.9,3.1,8.1,3.9,12.4c0.4-3.6,1-7.2,1.8-10.7
				C48.2,132,46.9,129.3,45.4,126.7z"/>
			<path class="st1" d="M36.3,115.2c-0.6,1.5-1.3,3-1.8,4.6c1.6,1.7,3.1,3.4,4.5,5.3c0.6-1.7,1.2-3.4,1.8-5.1
				C39.3,118.3,37.8,116.7,36.3,115.2z"/>
			<path class="st1" d="M49.2,134.8c-0.8,3.5-1.5,7-1.8,10.7c0.1,0.8,0.2,1.6,0.3,2.4c0.3-4.2,0.9-8.2,1.8-12.2
				C49.5,135.4,49.4,135.1,49.2,134.8z"/>
			<path class="st1" d="M49.6,135.7c-0.9,4-1.5,8-1.8,12.2c0.2,1.8,0.3,3.6,0.3,5.4c0-5.7,0.6-11.3,1.8-16.7
				C49.8,136.3,49.7,136,49.6,135.7z"/>
			<path class="st1" d="M36.1,136c-0.6,3.3-1.1,6.7-1.4,10.1c0.1,0.7,0.3,1.4,0.4,2.1c0.2-3.9,0.7-7.6,1.4-11.3
				C36.4,136.6,36.2,136.3,36.1,136z"/>
			<path class="st1" d="M38.9,125.1c0.1,0.2,0.3,0.4,0.4,0.5c0.6-1.7,1.2-3.4,1.8-5.1c-0.1-0.2-0.2-0.3-0.4-0.5
				C40.1,121.7,39.5,123.4,38.9,125.1z"/>
			<path class="st1" d="M36.5,136.9c-0.7,3.7-1.2,7.5-1.4,11.3c0.2,1.7,0.4,3.4,0.4,5.1c0-5.3,0.5-10.5,1.4-15.6
				C36.7,137.4,36.6,137.1,36.5,136.9z"/>
			<path class="st1" d="M39.3,125.6c0.1,0.2,0.3,0.3,0.4,0.5c0.6-1.8,1.2-3.5,1.8-5.2c-0.1-0.2-0.2-0.3-0.4-0.5
				C40.4,122.2,39.8,123.9,39.3,125.6z"/>
			<path class="st1" d="M22.9,138.3c-0.4,2.9-0.7,5.9-0.9,8.9c0.2,0.6,0.3,1.2,0.4,1.8c0.1-3.4,0.4-6.7,0.9-10
				C23.2,138.8,23.1,138.5,22.9,138.3z"/>
			<path class="st1" d="M26.3,123.2c-0.5,1.6-0.9,3.3-1.4,4.9c0.1,0.1,0.3,0.3,0.4,0.4c0.4-1.7,0.9-3.3,1.4-5
				C26.6,123.4,26.5,123.3,26.3,123.2z"/>
			<path class="st1" d="M31,110.8c-0.6,1.4-1.2,2.9-1.8,4.3c0.1,0.1,0.3,0.2,0.4,0.3c0.6-1.5,1.2-2.9,1.8-4.3
				C31.3,111,31.1,110.9,31,110.8z"/>
			<path class="st1" d="M23.4,139c-0.5,3.3-0.8,6.6-0.9,10c0.3,1.4,0.4,2.8,0.4,4.3c0-4.6,0.3-9.1,0.9-13.6
				C23.7,139.5,23.5,139.2,23.4,139z"/>
			<path class="st1" d="M26.8,123.6c-0.5,1.6-0.9,3.3-1.4,5c0.1,0.1,0.3,0.3,0.4,0.5c0.4-1.7,0.9-3.4,1.4-5
				C27,123.8,26.9,123.7,26.8,123.6z"/>
			<path class="st1" d="M31.4,111.1c-0.6,1.4-1.2,2.9-1.8,4.3c0.1,0.1,0.3,0.2,0.4,0.3c0.6-1.5,1.2-2.9,1.8-4.3
				C31.7,111.3,31.5,111.2,31.4,111.1z"/>
			<path class="st1" d="M44.3,112c0.7-1.4,1.5-2.8,2.3-4.2c-1.4-1.5-2.9-2.8-4.5-4.2c-0.8,1.3-1.5,2.7-2.3,4
				C41.4,109,42.9,110.5,44.3,112z"/>
			<path class="st1" d="M49,117.6c1.4,1.9,2.7,3.9,3.9,6c0.7-1.7,1.5-3.4,2.3-5.1c-1.2-1.9-2.5-3.7-3.9-5.5
				C50.4,114.5,49.7,116.1,49,117.6z"/>
			<path class="st1" d="M0,88.1v4.5c12.8,0,24.8,4,34.6,10.9c0.7-1.3,1.5-2.7,2.3-4C26.4,92.3,13.7,88.1,0,88.1z"/>
			<path class="st1" d="M59.1,125.8c-0.8,2.1-1.6,4.2-2.3,6.3c1.6,4.2,2.7,8.6,3.3,13.2c0.5-3.7,1.2-7.4,2.3-10.9
				C61.5,131.4,60.4,128.6,59.1,125.8z"/>
			<path class="st1" d="M62.4,134.3c-1.1,3.5-1.8,7.2-2.3,10.9c0.1,0.8,0.2,1.6,0.3,2.4c0.4-4.3,1.1-8.4,2.3-12.4
				C62.6,135,62.5,134.7,62.4,134.3z"/>
			<path class="st1" d="M62.7,135.3c-1.1,4-1.9,8.1-2.3,12.4c0.2,1.8,0.3,3.7,0.3,5.6c0-5.9,0.8-11.6,2.3-17
				C62.8,135.9,62.7,135.6,62.7,135.3z"/>
			<path class="st1" d="M52.9,123.6c0.1,0.2,0.2,0.4,0.3,0.6c0.7-1.7,1.4-3.4,2.3-5.1c-0.1-0.2-0.2-0.3-0.3-0.5
				C54.3,120.2,53.6,121.9,52.9,123.6z"/>
			<path class="st1" d="M53.2,124.2c0.1,0.2,0.2,0.4,0.3,0.6c0.7-1.8,1.4-3.5,2.3-5.2c-0.1-0.2-0.2-0.3-0.3-0.5
				C54.6,120.7,53.9,122.4,53.2,124.2z"/>
			<path class="st1" d="M47,108.2c-0.1-0.1-0.2-0.3-0.4-0.4c-0.8,1.4-1.6,2.8-2.3,4.2c0.1,0.1,0.3,0.3,0.4,0.4
				C45.5,111,46.2,109.6,47,108.2z"/>
			<path class="st1" d="M47.4,108.6c-0.1-0.1-0.3-0.3-0.4-0.4c-0.8,1.4-1.5,2.8-2.3,4.2c0.1,0.1,0.3,0.3,0.4,0.4
				C45.8,111.4,46.6,110,47.4,108.6z"/>
			<path class="st1" d="M36.8,99.5c-0.8,1.3-1.5,2.6-2.3,4c0.1,0.1,0.3,0.2,0.4,0.3c0.7-1.3,1.5-2.7,2.3-4
				C37.1,99.8,37,99.6,36.8,99.5z"/>
			<path class="st1" d="M37.3,99.9c-0.8,1.3-1.5,2.6-2.3,4c0.1,0.1,0.3,0.2,0.4,0.3c0.7-1.3,1.5-2.7,2.3-4
				C37.6,100.1,37.4,100,37.3,99.9z"/>
		</g>
		<g>
			<path class="st1" d="M274.6,153.3h4.5c0-5.7,4.6-10.3,10.3-10.3v-4.5C281.3,138.4,274.6,145.1,274.6,153.3z"/>
			<path class="st1" d="M262,153.3h4.5c0-12.6,10.3-22.9,22.9-22.9v-4.5C274.3,125.9,262,138.2,262,153.3z"/>
			<path class="st1" d="M249.4,153.3h4.5c0-19.6,15.9-35.5,35.5-35.5v-4.5C267.4,113.3,249.4,131.2,249.4,153.3z"/>
			<path class="st1" d="M236.9,153.3h4.5c0-26.5,21.6-48.1,48.1-48.1v-4.5C260.5,100.7,236.9,124.3,236.9,153.3z"/>
			<path class="st1" d="M289.5,92.6v-4.5c-28.6,0-53,18.5-61.7,44.2c0.8,4,1.4,8,1.7,12.1C233.7,115.2,259,92.6,289.5,92.6z"/>
			<path class="st1" d="M289.5,80.1v-4.5c-28.7,0-53.7,15.6-67.2,38.7c0.8,1.8,1.4,3.7,2.1,5.6C236.5,96.3,261.1,80.1,289.5,80.1z"
				/>
			<path class="st1" d="M214.7,131.9c1,4,1.7,8.1,2.1,12.3c0.6-5.1,1.8-10,3.4-14.7c-0.6-2.4-1.3-4.8-2.1-7.1
				C216.8,125.4,215.7,128.6,214.7,131.9z"/>
			<path class="st1" d="M289.5,67.5v-4.5c-30.4,0-57.3,15.1-73.7,38.2c0.8,1.5,1.7,2.9,2.4,4.4C233.6,82.6,259.8,67.5,289.5,67.5z"
				/>
			<path class="st1" d="M201.7,131.8c1.1,4,2,8.1,2.4,12.3c0.5-5.1,1.6-10.1,3-14.9c-0.7-2.4-1.5-4.8-2.5-7.1
				C203.5,125.3,202.5,128.5,201.7,131.8z"/>
			<path class="st1" d="M210.7,119.3c1-2.4,2.2-4.7,3.4-7c-0.8-1.6-1.6-3.3-2.4-4.9c-1.2,2.1-2.4,4.2-3.4,6.3
				C209.1,115.5,209.9,117.4,210.7,119.3z"/>
			<path class="st1" d="M289.5,54.9v-4.5c-32.9,0-62.3,15.6-81.1,39.7c1,1.2,1.9,2.5,2.8,3.8C229.1,70.2,257.5,54.9,289.5,54.9z"/>
			<path class="st1" d="M203.6,105.3c1.1-1.9,2.2-3.8,3.4-5.7c-0.9-1.4-1.8-2.7-2.8-4c-1.2,1.8-2.3,3.6-3.4,5.4
				C201.8,102.4,202.7,103.8,203.6,105.3z"/>
			<path class="st1" d="M188.7,132.3c1.3,3.9,2.2,7.9,2.8,12c0.5-5.1,1.3-10,2.5-14.9c-0.8-2.3-1.8-4.6-2.8-6.9
				C190.2,125.8,189.4,129,188.7,132.3z"/>
			<path class="st1" d="M197.2,107.6c-1.1,2.1-2.1,4.3-3,6.5c1,1.7,1.9,3.5,2.8,5.3c0.9-2.4,1.9-4.8,3-7.2
				C199.2,110.7,198.2,109.2,197.2,107.6z"/>
			<path class="st1" d="M186.5,153.3h4.5c0-6.5-1-12.9-2.8-18.8C187.1,140.6,186.5,146.9,186.5,153.3z"/>
			<path class="st1" d="M188.5,133.3c1.4,4.4,2.4,9,2.8,13.7c0.1-0.9,0.1-1.8,0.2-2.7c-0.6-4.1-1.5-8.2-2.8-12
				C188.6,132.6,188.5,133,188.5,133.3z"/>
			<path class="st1" d="M188.3,134.5c1.8,6,2.8,12.3,2.8,18.8c0-2.1,0.1-4.2,0.2-6.3c-0.4-4.7-1.4-9.3-2.8-13.7
				C188.4,133.7,188.3,134.1,188.3,134.5z"/>
			<path class="st1" d="M199.1,153.3h4.5c0-6.7-0.8-13.2-2.4-19.3C199.8,140.2,199.1,146.7,199.1,153.3z"/>
			<path class="st1" d="M193.8,115.4c-0.8,1.9-1.5,3.8-2.1,5.8c1,2.1,2,4.3,2.8,6.5c0.6-2.3,1.3-4.5,2.1-6.8
				C195.7,119,194.8,117.2,193.8,115.4z"/>
			<path class="st1" d="M201.5,132.9c1.2,4.6,2.1,9.3,2.4,14.2c0.1-1,0.1-2,0.2-2.9c-0.5-4.2-1.3-8.3-2.4-12.3
				C201.6,132.2,201.5,132.5,201.5,132.9z"/>
			<path class="st1" d="M201.2,134c1.6,6.2,2.4,12.7,2.4,19.3c0-2.1,0.1-4.2,0.3-6.3c-0.4-4.9-1.2-9.6-2.4-14.2
				C201.4,133.2,201.3,133.6,201.2,134z"/>
			<path class="st1" d="M211.7,153.3h4.5c0-6.6-0.7-13.1-2.1-19.3C212.5,140.1,211.7,146.6,211.7,153.3z"/>
			<path class="st1" d="M207.7,114.9c-0.9,1.9-1.7,3.8-2.4,5.7c0.9,2.2,1.7,4.4,2.4,6.7c0.7-2.3,1.5-4.5,2.4-6.7
				C209.4,118.7,208.5,116.8,207.7,114.9z"/>
			<path class="st1" d="M200.6,111.1c0.8-1.6,1.6-3.2,2.5-4.8c-0.9-1.5-1.8-2.9-2.8-4.3c-0.9,1.5-1.7,3-2.5,4.5
				C198.8,108.1,199.7,109.6,200.6,111.1z"/>
			<path class="st1" d="M214.4,132.9c1.1,4.6,1.8,9.3,2.1,14.1c0.1-1,0.2-1.9,0.3-2.9c-0.4-4.2-1.1-8.3-2.1-12.3
				C214.6,132.2,214.5,132.6,214.4,132.9z"/>
			<path class="st1" d="M214.1,134c1.4,6.2,2.1,12.7,2.1,19.3c0-2.1,0.1-4.2,0.3-6.3c-0.3-4.8-1-9.6-2.1-14.1
				C214.3,133.3,214.2,133.6,214.1,134z"/>
			<path class="st1" d="M228.8,153.3c0-6.4-0.6-12.7-1.8-18.8c-1.8,6-2.8,12.3-2.8,18.8H228.8z"/>
			<path class="st1" d="M220.9,127.7c0.8-2.2,1.8-4.4,2.8-6.5c-0.6-1.9-1.3-3.9-2.1-5.8c-1,1.8-1.9,3.6-2.8,5.5
				C219.5,123.1,220.2,125.4,220.9,127.7z"/>
			<path class="st1" d="M214.8,111.1c0.9-1.6,1.8-3.1,2.8-4.6c-0.8-1.5-1.6-3-2.5-4.5c-1,1.4-1.9,2.8-2.8,4.3
				C213.2,107.9,214,109.5,214.8,111.1z"/>
			<path class="st1" d="M207.7,98.7c0.9-1.3,1.8-2.7,2.8-4c-0.9-1.3-1.8-2.6-2.8-3.8c-1,1.3-1.9,2.5-2.8,3.8
				C205.8,96,206.8,97.3,207.7,98.7z"/>
			<path class="st1" d="M229.5,144.5c-0.3-4.1-0.9-8.2-1.7-12.1c-0.1,0.3-0.2,0.7-0.3,1c0.9,4.5,1.5,9,1.7,13.7
				C229.2,146.2,229.3,145.3,229.5,144.5z"/>
			<path class="st1" d="M229.1,147.1c-0.3-4.7-0.9-9.2-1.7-13.7c-0.1,0.4-0.2,0.7-0.3,1.1c1.1,6.1,1.8,12.4,1.8,18.8
				C228.8,151.2,228.9,149.1,229.1,147.1z"/>
			<g>
				<path class="st1" d="M218.1,122.3c0.8,2.3,1.5,4.7,2.1,7.1c0.1-0.3,0.2-0.6,0.3-0.9c-0.6-2.3-1.3-4.6-2.1-6.9
					C218.3,121.9,218.2,122.1,218.1,122.3z"/>
				<path class="st1" d="M218.5,121.6c0.8,2.3,1.5,4.6,2.1,6.9c0.1-0.3,0.2-0.6,0.3-0.8c-0.6-2.3-1.3-4.5-2.1-6.8
					C218.7,121.2,218.6,121.4,218.5,121.6z"/>
			</g>
			<g>
				<path class="st1" d="M214.1,112.3c0.1-0.2,0.2-0.4,0.3-0.6c-0.8-1.6-1.6-3.3-2.4-4.9c-0.1,0.2-0.2,0.4-0.3,0.5
					C212.5,109,213.3,110.6,214.1,112.3z"/>
				<path class="st1" d="M214.4,111.7c0.1-0.2,0.2-0.4,0.3-0.6c-0.8-1.6-1.6-3.2-2.5-4.8c-0.1,0.2-0.2,0.3-0.3,0.5
					C212.9,108.4,213.7,110.1,214.4,111.7z"/>
			</g>
			<g>
				<path class="st1" d="M207,99.6c0.1-0.2,0.2-0.3,0.3-0.5c-0.9-1.4-1.8-2.7-2.8-4c-0.1,0.2-0.2,0.3-0.3,0.5
					C205.2,96.9,206.1,98.3,207,99.6z"/>
				<path class="st1" d="M207.4,99.1c0.1-0.2,0.2-0.3,0.3-0.5c-0.9-1.3-1.8-2.7-2.8-4c-0.1,0.2-0.2,0.3-0.3,0.5
					C205.5,96.5,206.4,97.8,207.4,99.1z"/>
			</g>
			<path class="st1" d="M289.5,42.3v-4.5c-36.1,0-68.3,16.6-89.5,42.6c1.1,1.1,2.1,2.2,3.2,3.3C223.4,58.5,254.6,42.3,289.5,42.3z"
				/>
			<path class="st1" d="M182.8,109c-0.9,2.2-1.7,4.4-2.5,6.6c1.1,1.6,2.2,3.3,3.1,5c0.8-2.4,1.6-4.8,2.5-7.2
				C184.9,111.8,183.9,110.4,182.8,109z"/>
			<path class="st1" d="M195.6,94.2c1.1-1.7,2.2-3.4,3.4-5.1c-1-1.2-2.1-2.3-3.1-3.4c-1.2,1.6-2.3,3.3-3.4,5
				C193.5,91.9,194.5,93,195.6,94.2z"/>
			<path class="st1" d="M175.7,133.4c1.4,3.6,2.5,7.4,3.2,11.4c0.4-4.9,1-9.7,2-14.4c-0.9-2.2-2-4.3-3.2-6.4
				C176.9,127.1,176.2,130.2,175.7,133.4z"/>
			<path class="st1" d="M185.9,102.2c1.1,1.3,2.1,2.6,3.2,3.9c0.9-2,1.9-3.9,3-5.9c-1-1.3-2-2.5-3.1-3.7
				C187.8,98.5,186.8,100.3,185.9,102.2z"/>
			<path class="st1" d="M173.9,153.3h4.5c0-6.3-1.1-12.3-3.1-17.9C174.4,141.2,173.9,147.2,173.9,153.3z"/>
			<path class="st1" d="M175.5,134.4c1.6,4.1,2.6,8.4,3.1,12.9c0-0.8,0.1-1.7,0.2-2.5c-0.6-3.9-1.7-7.7-3.2-11.4
				C175.6,133.7,175.6,134,175.5,134.4z"/>
			<path class="st1" d="M175.3,135.4c2,5.6,3.1,11.6,3.1,17.9c0-2,0.1-4,0.2-6c-0.5-4.5-1.6-8.8-3.1-12.9
				C175.4,134.7,175.4,135,175.3,135.4z"/>
			<path class="st1" d="M179.9,116.8c-0.6,1.9-1.2,3.8-1.8,5.7c1.2,2,2.2,4,3.1,6.1c0.5-2.3,1.1-4.5,1.7-6.7
				C182,120.2,181,118.5,179.9,116.8z"/>
			<path class="st1" d="M180.3,115.6c-0.1,0.2-0.1,0.4-0.2,0.6c1.1,1.6,2.2,3.3,3.1,5.1c0.1-0.2,0.1-0.5,0.2-0.7
				C182.4,118.8,181.4,117.2,180.3,115.6z"/>
			<path class="st1" d="M177.7,124c1.2,2.1,2.2,4.2,3.2,6.4c0.1-0.3,0.1-0.6,0.2-0.9c-0.9-2.2-2-4.2-3.2-6.2
				C177.8,123.5,177.8,123.7,177.7,124z"/>
			<path class="st1" d="M177.9,123.3c1.2,2,2.2,4.1,3.2,6.2c0.1-0.3,0.1-0.6,0.2-0.8c-0.9-2.1-2-4.1-3.1-6.1
				C178,122.8,178,123,177.9,123.3z"/>
			<path class="st1" d="M180.1,116.2c-0.1,0.2-0.1,0.4-0.2,0.6c1.1,1.7,2.2,3.4,3.1,5.1c0.1-0.2,0.1-0.5,0.2-0.7
				C182.2,119.5,181.2,117.8,180.1,116.2z"/>
			<path class="st1" d="M183.2,107.9c1.1,1.4,2.2,2.8,3.2,4.3c0.7-1.6,1.4-3.3,2.1-4.9c-1-1.4-2.1-2.7-3.2-4
				C184.6,104.8,183.9,106.3,183.2,107.9z"/>
			<path class="st1" d="M185.6,102.7c1.1,1.3,2.2,2.6,3.2,4c0.1-0.2,0.2-0.4,0.3-0.6c-1-1.3-2.1-2.6-3.2-3.9
				C185.8,102.4,185.7,102.6,185.6,102.7z"/>
			<path class="st1" d="M183,108.4c-0.1,0.2-0.1,0.4-0.2,0.6c1.1,1.4,2.2,2.9,3.2,4.4c0.1-0.2,0.2-0.4,0.2-0.6
				C185.2,111.3,184.1,109.8,183,108.4z"/>
			<path class="st1" d="M185.3,103.2c1.1,1.3,2.2,2.6,3.2,4c0.1-0.2,0.2-0.4,0.3-0.6c-1-1.4-2.1-2.7-3.2-4
				C185.5,102.9,185.4,103.1,185.3,103.2z"/>
			<path class="st1" d="M183.2,107.9c-0.1,0.2-0.2,0.4-0.2,0.5c1.1,1.4,2.2,2.8,3.2,4.3c0.1-0.2,0.2-0.4,0.2-0.6
				C185.4,110.7,184.3,109.3,183.2,107.9z"/>
			<path class="st1" d="M192.5,99.3c0.8-1.4,1.6-2.8,2.4-4.2c-1-1.2-2.1-2.4-3.1-3.5c-0.8,1.3-1.7,2.7-2.4,4
				C190.5,96.9,191.5,98.1,192.5,99.3z"/>
			<path class="st1" d="M195.3,94.7c0.1-0.2,0.2-0.3,0.3-0.5c-1-1.2-2.1-2.4-3.1-3.5c-0.1,0.2-0.2,0.3-0.3,0.5
				C193.2,92.3,194.2,93.5,195.3,94.7z"/>
			<path class="st1" d="M188.8,96.6c1.1,1.2,2.1,2.4,3.1,3.7c0.1-0.2,0.2-0.3,0.3-0.5c-1-1.3-2-2.5-3.1-3.7
				C189,96.3,188.9,96.5,188.8,96.6z"/>
			<path class="st1" d="M195,95.2c0.1-0.2,0.2-0.3,0.3-0.5c-1-1.2-2.1-2.4-3.1-3.5c-0.1,0.2-0.2,0.3-0.3,0.5
				C192.9,92.8,194,94,195,95.2z"/>
			<path class="st1" d="M189.1,96.1c1.1,1.2,2.1,2.4,3.1,3.7c0.1-0.2,0.2-0.3,0.3-0.5c-1-1.2-2.1-2.5-3.1-3.7
				C189.3,95.8,189.2,96,189.1,96.1z"/>
			<path class="st1" d="M199.6,88.2c0.9-1.3,1.8-2.5,2.8-3.7c-1-1.1-2.1-2.3-3.1-3.3c-1,1.2-1.9,2.4-2.8,3.6
				C197.5,86,198.6,87.1,199.6,88.2z"/>
			<path class="st1" d="M203.1,83.7c-1-1.1-2.1-2.2-3.2-3.3c-0.1,0.1-0.2,0.3-0.3,0.4c1.1,1.1,2.1,2.2,3.2,3.3
				C202.9,84,203,83.9,203.1,83.7z"/>
			<path class="st1" d="M199,89.1c0.1-0.1,0.2-0.3,0.3-0.4c-1-1.2-2.1-2.3-3.1-3.4c-0.1,0.1-0.2,0.3-0.3,0.4
				C196.9,86.8,198,88,199,89.1z"/>
			<path class="st1" d="M202.7,84.1c-1-1.1-2.1-2.2-3.2-3.3c-0.1,0.1-0.2,0.3-0.3,0.4c1.1,1.1,2.1,2.2,3.1,3.3
				C202.5,84.4,202.6,84.3,202.7,84.1z"/>
			<path class="st1" d="M199.3,88.7c0.1-0.1,0.2-0.3,0.3-0.4c-1-1.2-2.1-2.3-3.2-3.4c-0.1,0.1-0.2,0.3-0.3,0.4
				C197.2,86.4,198.3,87.5,199.3,88.7z"/>
			<path class="st1" d="M168.3,111.5c-0.7,2.1-1.4,4.3-2.1,6.5c1.2,1.4,2.4,2.9,3.5,4.5c0.6-2.4,1.3-4.8,2.1-7.1
				C170.7,114.1,169.6,112.8,168.3,111.5z"/>
			<path class="st1" d="M162.6,135.1c1.6,3.2,2.8,6.7,3.5,10.3c0.3-4.5,0.8-9,1.6-13.4c-1-2-2.2-3.9-3.5-5.8
				C163.6,129.1,163.1,132.1,162.6,135.1z"/>
			<path class="st1" d="M173.4,99.1c-0.9,1.9-1.7,3.8-2.5,5.7c1.2,1.1,2.4,2.3,3.5,3.5c0.8-2,1.6-4,2.5-6
				C175.8,101.2,174.6,100.1,173.4,99.1z"/>
			<path class="st1" d="M289.5,29.7v-4.5c-39.8,0-75.4,18.2-98.9,46.8c1.2,0.9,2.3,1.9,3.5,2.9C216.7,47.3,251.1,29.7,289.5,29.7z"
				/>
			<path class="st1" d="M180,96.1c1-1.8,1.9-3.6,3-5.4c-1.1-1-2.3-2-3.5-3c-1,1.7-2,3.5-3,5.3C177.7,93.9,178.8,95,180,96.1z"/>
			<path class="st1" d="M186.5,85c1.1-1.7,2.2-3.3,3.4-4.9c-1.1-1-2.3-2-3.5-2.9c-1.2,1.6-2.3,3.2-3.4,4.9
				C184.2,83,185.4,84,186.5,85z"/>
			<path class="st1" d="M161.3,153.3h4.5c0-5.8-1.3-11.4-3.5-16.4C161.7,142.3,161.3,147.8,161.3,153.3z"/>
			<path class="st1" d="M162.5,136c1.7,3.7,2.9,7.6,3.5,11.7c0-0.8,0.1-1.6,0.1-2.4c-0.7-3.6-1.9-7.1-3.5-10.3
				C162.6,135.4,162.6,135.7,162.5,136z"/>
			<path class="st1" d="M162.4,136.9c2.2,5,3.5,10.5,3.5,16.4c0-1.9,0-3.7,0.1-5.6c-0.6-4.1-1.8-8.1-3.5-11.7
				C162.5,136.3,162.4,136.6,162.4,136.9z"/>
			<path class="st1" d="M165.9,119.3c-0.5,1.8-1,3.7-1.4,5.5c1.3,1.7,2.5,3.6,3.5,5.5c0.4-2.2,0.9-4.3,1.4-6.4
				C168.4,122.3,167.2,120.7,165.9,119.3z"/>
			<path class="st1" d="M166.3,118.1c-0.1,0.2-0.1,0.4-0.2,0.6c1.2,1.4,2.4,3,3.5,4.5c0.1-0.2,0.1-0.4,0.2-0.7
				C168.7,121,167.5,119.5,166.3,118.1z"/>
			<path class="st1" d="M164.2,126.2c1.3,1.8,2.5,3.8,3.5,5.8c0-0.3,0.1-0.6,0.2-0.9c-1-2-2.2-3.8-3.5-5.6
				C164.3,125.7,164.3,126,164.2,126.2z"/>
			<path class="st1" d="M164.4,125.5c1.3,1.8,2.5,3.7,3.5,5.6c0.1-0.3,0.1-0.5,0.2-0.8c-1-1.9-2.2-3.7-3.5-5.5
				C164.5,125,164.4,125.3,164.4,125.5z"/>
			<path class="st1" d="M166.1,118.7c-0.1,0.2-0.1,0.4-0.2,0.6c1.2,1.5,2.4,3,3.5,4.6c0.1-0.2,0.1-0.4,0.2-0.7
				C168.5,121.6,167.3,120.1,166.1,118.7z"/>
			<path class="st1" d="M170.5,105.8c-0.6,1.5-1.2,3.1-1.7,4.6c1.2,1.2,2.4,2.5,3.5,3.8c0.6-1.6,1.1-3.3,1.8-4.9
				C172.8,108.1,171.7,107,170.5,105.8z"/>
			<path class="st1" d="M170.9,104.8c-0.1,0.2-0.1,0.3-0.2,0.5c1.2,1.1,2.4,2.3,3.5,3.5c0.1-0.2,0.1-0.4,0.2-0.5
				C173.3,107.1,172.1,105.9,170.9,104.8z"/>
			<path class="st1" d="M168.5,111c-0.1,0.2-0.1,0.4-0.2,0.6c1.2,1.2,2.4,2.5,3.5,3.9c0.1-0.2,0.1-0.4,0.2-0.6
				C170.9,113.5,169.7,112.2,168.5,111z"/>
			<path class="st1" d="M168.7,110.4c-0.1,0.2-0.1,0.4-0.2,0.6c1.2,1.2,2.4,2.5,3.5,3.8c0.1-0.2,0.1-0.4,0.2-0.6
				C171.1,112.9,169.9,111.6,168.7,110.4z"/>
			<path class="st1" d="M170.7,105.3c-0.1,0.2-0.1,0.3-0.2,0.5c1.2,1.1,2.4,2.3,3.5,3.5c0.1-0.2,0.1-0.4,0.2-0.5
				C173.1,107.6,171.9,106.4,170.7,105.3z"/>
			<path class="st1" d="M176,93.9c-0.7,1.4-1.4,2.8-2.1,4.2c1.2,1,2.4,2.1,3.5,3.2c0.7-1.4,1.4-2.9,2.1-4.3
				C178.3,95.9,177.2,94.9,176,93.9z"/>
			<path class="st1" d="M176.5,92.9c-0.1,0.2-0.2,0.3-0.3,0.5c1.2,1,2.4,2.1,3.5,3.1c0.1-0.2,0.2-0.3,0.3-0.5
				C178.8,95,177.7,93.9,176.5,92.9z"/>
			<path class="st1" d="M173.4,99.1c1.2,1.1,2.4,2.1,3.5,3.3c0.1-0.2,0.2-0.3,0.2-0.5c-1.1-1.1-2.3-2.2-3.5-3.2
				C173.6,98.7,173.5,98.9,173.4,99.1z"/>
			<path class="st1" d="M176.2,93.4c-0.1,0.2-0.2,0.3-0.3,0.5c1.2,1,2.4,2.1,3.5,3.1c0.1-0.2,0.2-0.3,0.3-0.5
				C178.6,95.5,177.4,94.4,176.2,93.4z"/>
			<path class="st1" d="M173.6,98.6c1.2,1,2.4,2.1,3.5,3.2c0.1-0.2,0.2-0.3,0.2-0.5c-1.1-1.1-2.3-2.2-3.5-3.2
				C173.8,98.2,173.7,98.4,173.6,98.6z"/>
			<path class="st1" d="M183.5,89.8c0.8-1.3,1.6-2.6,2.4-3.9c-1.1-1-2.3-2-3.5-3c-0.8,1.3-1.7,2.5-2.5,3.8
				C181.2,87.7,182.4,88.7,183.5,89.8z"/>
			<path class="st1" d="M183,90.7c0.1-0.2,0.2-0.3,0.3-0.5c-1.1-1-2.3-2-3.5-3c-0.1,0.2-0.2,0.3-0.3,0.5
				C180.7,88.7,181.8,89.7,183,90.7z"/>
			<path class="st1" d="M186.2,85.4c0.1-0.1,0.2-0.3,0.3-0.4c-1.1-1-2.3-2-3.5-3c-0.1,0.1-0.2,0.3-0.3,0.4
				C183.9,83.4,185.1,84.4,186.2,85.4z"/>
			<path class="st1" d="M185.9,85.9c0.1-0.1,0.2-0.3,0.3-0.4c-1.1-1-2.3-2-3.5-3c-0.1,0.1-0.2,0.3-0.3,0.4
				C183.6,83.9,184.8,84.9,185.9,85.9z"/>
			<path class="st1" d="M183.2,90.2c0.1-0.2,0.2-0.3,0.3-0.5c-1.1-1-2.3-2-3.5-3c-0.1,0.2-0.2,0.3-0.3,0.5
				C180.9,88.2,182.1,89.2,183.2,90.2z"/>
			<path class="st1" d="M190.6,79.3c0.9-1.2,1.8-2.4,2.8-3.6c-1.1-1-2.3-2-3.5-2.9c-1,1.2-1.9,2.4-2.8,3.6
				C188.3,77.3,189.4,78.3,190.6,79.3z"/>
			<path class="st1" d="M194,74.9c-1.1-1-2.3-2-3.5-2.9c-0.1,0.1-0.2,0.3-0.3,0.4c1.2,0.9,2.3,1.9,3.5,2.9
				C193.8,75.1,193.9,75,194,74.9z"/>
			<path class="st1" d="M190,80.1c0.1-0.1,0.2-0.3,0.3-0.4c-1.1-1-2.3-2-3.5-2.9c-0.1,0.1-0.2,0.3-0.3,0.4
				C187.7,78.1,188.8,79.1,190,80.1z"/>
			<path class="st1" d="M190.3,79.7c0.1-0.1,0.2-0.3,0.3-0.4c-1.1-1-2.3-2-3.5-2.9c-0.1,0.1-0.2,0.3-0.3,0.4
				C188,77.7,189.1,78.7,190.3,79.7z"/>
			<path class="st1" d="M193.7,75.3c-1.1-1-2.3-2-3.5-2.9c-0.1,0.1-0.2,0.3-0.3,0.4c1.2,0.9,2.3,1.9,3.5,2.9
				C193.5,75.5,193.6,75.4,193.7,75.3z"/>
			<path class="st1" d="M155.9,108.9c1.3,0.9,2.6,1.9,3.8,2.9c0.6-2,1.3-4,2.1-5.9c-1.2-0.9-2.5-1.8-3.8-2.7
				C157.3,105,156.6,107,155.9,108.9z"/>
			<path class="st1" d="M289.5,17.1v-4.5c-44,0-83.4,20.3-109.2,52.1c1.3,0.8,2.6,1.6,3.8,2.5C209.1,36.6,247,17.1,289.5,17.1z"/>
			<path class="st1" d="M153.9,115.6c-0.6,2.1-1.1,4.2-1.6,6.3c1.4,1.1,2.6,2.4,3.8,3.7c0.5-2.3,1-4.6,1.6-6.8
				C156.5,117.6,155.2,116.6,153.9,115.6z"/>
			<path class="st1" d="M170,88c1-1.7,1.9-3.5,3-5.2c-1.3-0.8-2.5-1.6-3.8-2.4c-1,1.7-2,3.4-3,5.1C167.5,86.4,168.7,87.2,170,88z"/>
			<path class="st1" d="M166.9,94c-1.3-0.9-2.5-1.7-3.8-2.5c-0.9,1.8-1.7,3.6-2.5,5.4c1.3,0.8,2.6,1.7,3.8,2.6
				C165.2,97.6,166,95.8,166.9,94z"/>
			<path class="st1" d="M176.6,77.3c1.1-1.6,2.3-3.3,3.4-4.9c-1.3-0.8-2.5-1.7-3.8-2.5c-1.2,1.6-2.3,3.2-3.4,4.9
				C174,75.6,175.3,76.4,176.6,77.3z"/>
			<path class="st1" d="M150.8,129.6c-0.5,2.7-0.8,5.4-1.1,8.1c0,0.3-0.1,0.6-0.1,0.8c0,0.3-0.1,0.6-0.1,0.9
				c-0.5,4.6-0.7,9.2-0.7,14h4.5c0-1.6,0-3.2,0.1-4.7c0-0.7,0-1.4,0.1-2.1c0.2-4.1,0.6-8.1,1.1-12
				C153.5,132.7,152.2,131.1,150.8,129.6z"/>
			<path class="st1" d="M152,123.1c-0.4,1.7-0.7,3.5-1.1,5.2c1.4,1.4,2.7,3,3.8,4.6c0.3-2,0.7-4,1-6
				C154.7,125.5,153.4,124.2,152,123.1z"/>
			<path class="st1" d="M152.3,121.9c0,0.2-0.1,0.4-0.1,0.6c1.4,1.2,2.6,2.4,3.8,3.7c0-0.2,0.1-0.4,0.1-0.6
				C154.9,124.3,153.7,123,152.3,121.9z"/>
			<path class="st1" d="M150.8,129.6c1.4,1.5,2.7,3.1,3.9,4.8c0-0.3,0.1-0.5,0.1-0.8c-1.1-1.7-2.4-3.2-3.9-4.7
				C150.8,129.1,150.8,129.3,150.8,129.6z"/>
			<path class="st1" d="M150.9,128.9c1.4,1.5,2.7,3,3.9,4.7c0-0.3,0.1-0.5,0.1-0.8c-1.2-1.6-2.4-3.2-3.8-4.6
				C150.9,128.5,150.9,128.7,150.9,128.9z"/>
			<path class="st1" d="M152.2,122.5c0,0.2-0.1,0.4-0.1,0.6c1.4,1.2,2.7,2.5,3.8,3.8c0-0.2,0.1-0.4,0.1-0.7
				C154.8,124.9,153.5,123.6,152.2,122.5z"/>
			<path class="st1" d="M154.2,114.5c1.3,1,2.6,2,3.9,3.1c0.4-1.6,0.9-3.2,1.4-4.8c-1.2-1-2.5-2-3.8-2.9
				C155.1,111.4,154.6,113,154.2,114.5z"/>
			<path class="st1" d="M154,115c-0.1,0.2-0.1,0.4-0.1,0.5c1.3,1,2.6,2.1,3.8,3.2c0.1-0.2,0.1-0.4,0.2-0.6
				C156.7,117.1,155.4,116,154,115z"/>
			<path class="st1" d="M155.8,109.4c1.3,0.9,2.6,1.9,3.8,2.9c0.1-0.2,0.1-0.4,0.2-0.5c-1.2-1-2.5-2-3.8-2.9
				C155.9,109.1,155.8,109.2,155.8,109.4z"/>
			<path class="st1" d="M155.6,109.9c1.3,0.9,2.6,1.9,3.8,2.9c0.1-0.2,0.1-0.4,0.2-0.5c-1.2-1-2.5-2-3.8-2.9
				C155.7,109.6,155.7,109.8,155.6,109.9z"/>
			<path class="st1" d="M154.2,114.5c-0.1,0.2-0.1,0.4-0.2,0.5c1.3,1,2.6,2,3.9,3.2c0.1-0.2,0.1-0.4,0.2-0.6
				C156.8,116.5,155.5,115.5,154.2,114.5z"/>
			<path class="st1" d="M160.1,97.9c-0.6,1.4-1.2,2.8-1.8,4.3c1.3,0.8,2.6,1.7,3.9,2.7c0.6-1.5,1.1-2.9,1.7-4.3
				C162.7,99.5,161.5,98.7,160.1,97.9z"/>
			<path class="st1" d="M164.4,99.5c-1.2-0.9-2.5-1.8-3.8-2.6c-0.1,0.2-0.1,0.3-0.2,0.5c1.3,0.8,2.6,1.7,3.8,2.6
				C164.3,99.8,164.3,99.6,164.4,99.5z"/>
			<path class="st1" d="M158,103.1c1.3,0.8,2.6,1.7,3.8,2.7c0.1-0.2,0.1-0.3,0.2-0.5c-1.2-0.9-2.5-1.8-3.8-2.7
				C158.1,102.8,158.1,103,158,103.1z"/>
			<path class="st1" d="M158.2,102.6c1.3,0.8,2.6,1.7,3.8,2.7c0.1-0.2,0.1-0.3,0.2-0.5c-1.2-0.9-2.5-1.8-3.9-2.7
				C158.3,102.3,158.3,102.5,158.2,102.6z"/>
			<path class="st1" d="M164.2,100c-1.2-0.9-2.5-1.8-3.8-2.6c-0.1,0.2-0.1,0.3-0.2,0.5c1.3,0.8,2.6,1.7,3.8,2.6
				C164,100.3,164.1,100.1,164.2,100z"/>
			<path class="st1" d="M169.5,88.9c-1.3-0.9-2.5-1.7-3.8-2.4c-0.7,1.3-1.4,2.7-2.1,4c1.3,0.8,2.6,1.6,3.8,2.5
				C168.1,91.6,168.8,90.3,169.5,88.9z"/>
			<path class="st1" d="M166.2,85.6c-0.1,0.2-0.2,0.3-0.3,0.5c1.3,0.8,2.6,1.6,3.8,2.4c0.1-0.2,0.2-0.3,0.3-0.5
				C168.7,87.2,167.5,86.4,166.2,85.6z"/>
			<path class="st1" d="M167.2,93.5c-1.3-0.9-2.5-1.7-3.8-2.5c-0.1,0.2-0.2,0.3-0.2,0.5c1.3,0.8,2.6,1.6,3.8,2.5
				C167,93.8,167.1,93.7,167.2,93.5z"/>
			<path class="st1" d="M165.9,86c-0.1,0.2-0.2,0.3-0.3,0.5c1.3,0.8,2.6,1.6,3.8,2.4c0.1-0.2,0.2-0.3,0.2-0.5
				C168.5,87.6,167.2,86.8,165.9,86z"/>
			<path class="st1" d="M167.4,93c-1.3-0.9-2.5-1.7-3.8-2.5c-0.1,0.2-0.2,0.3-0.2,0.5c1.3,0.8,2.6,1.6,3.8,2.5
				C167.2,93.3,167.3,93.2,167.4,93z"/>
			<path class="st1" d="M173.5,82c0.8-1.3,1.6-2.6,2.5-3.8c-1.3-0.8-2.5-1.6-3.8-2.4c-0.8,1.3-1.7,2.5-2.5,3.8
				C171,80.3,172.3,81.1,173.5,82z"/>
			<path class="st1" d="M173,82.9c0.1-0.1,0.2-0.3,0.3-0.4c-1.3-0.8-2.5-1.6-3.8-2.4c-0.1,0.1-0.2,0.3-0.3,0.4
				C170.4,81.2,171.7,82,173,82.9z"/>
			<path class="st1" d="M176.3,77.7c0.1-0.1,0.2-0.3,0.3-0.4c-1.3-0.8-2.5-1.7-3.8-2.4c-0.1,0.1-0.2,0.3-0.3,0.4
				C173.7,76.1,175,76.9,176.3,77.7z"/>
			<path class="st1" d="M176,78.1c0.1-0.1,0.2-0.3,0.3-0.4c-1.3-0.8-2.5-1.6-3.8-2.4c-0.1,0.1-0.2,0.3-0.3,0.4
				C173.4,76.5,174.7,77.3,176,78.1z"/>
			<path class="st1" d="M173.2,82.4c0.1-0.1,0.2-0.3,0.3-0.4c-1.3-0.8-2.5-1.6-3.8-2.4c-0.1,0.1-0.2,0.3-0.3,0.4
				C170.7,80.8,172,81.6,173.2,82.4z"/>
			<path class="st1" d="M180.6,71.6c0.9-1.2,1.9-2.4,2.8-3.6c-1.3-0.9-2.5-1.7-3.8-2.5c-1,1.2-1.9,2.4-2.8,3.6
				C178.1,69.9,179.4,70.7,180.6,71.6z"/>
			<path class="st1" d="M184.1,67.2c-1.3-0.9-2.5-1.7-3.8-2.5c-0.1,0.1-0.2,0.3-0.3,0.4c1.3,0.8,2.6,1.6,3.8,2.5
				C183.9,67.4,184,67.3,184.1,67.2z"/>
			<path class="st1" d="M180,72.4c0.1-0.1,0.2-0.3,0.3-0.4c-1.3-0.8-2.5-1.7-3.8-2.5c-0.1,0.1-0.2,0.3-0.3,0.4
				C177.5,70.8,178.7,71.6,180,72.4z"/>
			<path class="st1" d="M180.3,72c0.1-0.1,0.2-0.3,0.3-0.4c-1.3-0.8-2.5-1.7-3.8-2.5c-0.1,0.1-0.2,0.3-0.3,0.4
				C177.8,70.3,179,71.1,180.3,72z"/>
			<path class="st1" d="M183.8,67.6c-1.3-0.9-2.5-1.7-3.8-2.5c-0.1,0.1-0.2,0.3-0.3,0.4c1.3,0.8,2.6,1.6,3.8,2.5
				C183.5,67.8,183.6,67.7,183.8,67.6z"/>
			<path class="st1" d="M137.3,134.7c-0.3,2.3-0.5,4.6-0.7,6.9c1.9,1.7,3.3,3.9,4.2,6.3c0.1-3.3,0.3-6.6,0.7-9.9
				C140.2,136.8,138.8,135.7,137.3,134.7z"/>
			<path class="st1" d="M150.9,99.2c-1.4-0.6-2.8-1.2-4.2-1.8c-0.7,1.8-1.4,3.7-2.1,5.6c1.4,0.5,2.8,1.1,4.2,1.8
				C149.5,102.9,150.2,101.1,150.9,99.2z"/>
			<path class="st1" d="M289.5,4.5V0C240.6,0,197,23,168.9,58.7c1.4,0.6,2.8,1.3,4.2,2C200.4,26.5,242.4,4.5,289.5,4.5z"/>
			<path class="st1" d="M162,76.6c-1.4-0.7-2.8-1.3-4.2-1.8c-1,1.7-2,3.5-3,5.2c1.4,0.6,2.8,1.2,4.2,1.8C160,80.1,161,78.3,162,76.6
				z"/>
			<path class="st1" d="M151.8,85.9c-0.9,1.8-1.7,3.6-2.5,5.4c1.4,0.5,2.8,1.1,4.2,1.8c0.8-1.8,1.6-3.6,2.5-5.4
				C154.6,87.1,153.2,86.5,151.8,85.9z"/>
			<path class="st1" d="M143.7,123.8c-1.3-0.8-2.7-1.5-4.2-2.2c-0.4,2-0.8,4-1.1,6c1.5,0.7,2.9,1.6,4.2,2.5
				C142.8,128.1,143.2,125.9,143.7,123.8z"/>
			<path class="st1" d="M146.8,111.2c-1.4-0.7-2.8-1.3-4.2-1.8c-0.6,1.9-1.1,3.8-1.6,5.8c1.4,0.6,2.8,1.2,4.2,1.9
				C145.7,115.1,146.2,113.1,146.8,111.2z"/>
			<path class="st1" d="M165.6,71c1.1-1.7,2.3-3.3,3.4-4.9c-1.4-0.7-2.8-1.3-4.2-2c-1.2,1.6-2.3,3.3-3.4,5
				C162.9,69.7,164.2,70.3,165.6,71z"/>
			<path class="st1" d="M136.6,141.6c0,0.2,0,0.4,0,0.7c2,2,3.5,4.5,4.2,7.3c0-0.5,0-1.1,0.1-1.6
				C139.9,145.5,138.5,143.3,136.6,141.6z"/>
			<path class="st1" d="M136.6,142.3c0,0.2,0,0.5,0,0.7c2.6,2.7,4.2,6.3,4.2,10.3c0-1.2,0-2.5,0-3.7
				C140.1,146.8,138.6,144.2,136.6,142.3z"/>
			<path class="st1" d="M138.1,128.8c-0.3,1.6-0.5,3.2-0.7,4.8c1.5,0.9,2.9,2,4.2,3.2c0.2-1.8,0.4-3.6,0.7-5.3
				C141,130.4,139.6,129.5,138.1,128.8z"/>
			<path class="st1" d="M142.5,130.2c-1.3-1-2.7-1.8-4.2-2.5c0,0.2-0.1,0.4-0.1,0.5c1.5,0.7,2.9,1.6,4.2,2.6
				C142.4,130.6,142.5,130.4,142.5,130.2z"/>
			<path class="st1" d="M137.3,134.7c1.5,0.9,2.9,2.1,4.2,3.3c0-0.2,0.1-0.4,0.1-0.7c-1.3-1.2-2.7-2.3-4.2-3.2
				C137.3,134.3,137.3,134.5,137.3,134.7z"/>
			<path class="st1" d="M137.4,134.1c1.5,0.9,2.9,2,4.2,3.2c0-0.2,0-0.4,0.1-0.6c-1.3-1.2-2.7-2.3-4.2-3.2
				C137.4,133.8,137.4,134,137.4,134.1z"/>
			<path class="st1" d="M142.4,130.8c-1.3-1-2.7-1.8-4.2-2.6c0,0.2-0.1,0.4-0.1,0.5c1.5,0.7,2.9,1.6,4.2,2.6
				C142.4,131.2,142.4,131,142.4,130.8z"/>
			<path class="st1" d="M144.9,118.1c-1.4-0.7-2.8-1.4-4.2-2c-0.4,1.5-0.7,3-1,4.5c1.4,0.6,2.8,1.3,4.2,2.1
				C144.2,121.2,144.6,119.6,144.9,118.1z"/>
			<path class="st1" d="M145.2,117.1c-1.4-0.7-2.8-1.4-4.2-1.9c0,0.2-0.1,0.3-0.1,0.5c1.4,0.6,2.8,1.2,4.2,2
				C145.1,117.4,145.1,117.2,145.2,117.1z"/>
			<path class="st1" d="M143.8,123.3c-1.3-0.8-2.7-1.5-4.2-2.1c0,0.2-0.1,0.3-0.1,0.5c1.5,0.6,2.9,1.3,4.2,2.2
				C143.7,123.6,143.7,123.5,143.8,123.3z"/>
			<path class="st1" d="M145.1,117.6c-1.4-0.7-2.8-1.4-4.2-2c0,0.2-0.1,0.3-0.1,0.5c1.4,0.6,2.8,1.2,4.2,2
				C145,117.9,145,117.8,145.1,117.6z"/>
			<path class="st1" d="M143.9,122.7c-1.3-0.8-2.7-1.5-4.2-2.1c0,0.2-0.1,0.3-0.1,0.5c1.4,0.6,2.8,1.3,4.2,2.1
				C143.8,123.1,143.8,122.9,143.9,122.7z"/>
			<path class="st1" d="M148.5,105.8c-1.4-0.7-2.8-1.2-4.2-1.8c-0.5,1.4-1,2.9-1.4,4.3c1.4,0.5,2.8,1.2,4.2,1.8
				C147.5,108.7,148,107.3,148.5,105.8z"/>
			<path class="st1" d="M146.9,110.7c-1.4-0.7-2.8-1.3-4.2-1.8c-0.1,0.2-0.1,0.3-0.2,0.5c1.4,0.5,2.8,1.2,4.2,1.8
				C146.8,111,146.9,110.9,146.9,110.7z"/>
			<path class="st1" d="M148.8,104.8c-1.4-0.7-2.8-1.2-4.2-1.8c-0.1,0.2-0.1,0.3-0.2,0.5c1.4,0.5,2.8,1.1,4.2,1.8
				C148.7,105.1,148.8,105,148.8,104.8z"/>
			<path class="st1" d="M148.7,105.3c-1.4-0.7-2.8-1.2-4.2-1.8c-0.1,0.2-0.1,0.3-0.2,0.5c1.4,0.5,2.8,1.1,4.2,1.8
				C148.5,105.6,148.6,105.5,148.7,105.3z"/>
			<path class="st1" d="M147.1,110.2c-1.4-0.7-2.8-1.3-4.2-1.8c-0.1,0.2-0.1,0.3-0.2,0.5c1.4,0.5,2.8,1.2,4.2,1.8
				C147,110.5,147,110.4,147.1,110.2z"/>
			<path class="st1" d="M153,94.1c-1.4-0.6-2.8-1.2-4.2-1.8c-0.6,1.4-1.2,2.8-1.8,4.2c1.4,0.5,2.8,1.1,4.2,1.8
				C151.8,96.8,152.4,95.4,153,94.1z"/>
			<path class="st1" d="M149.3,91.3c-0.1,0.2-0.1,0.3-0.2,0.5c1.4,0.5,2.8,1.1,4.2,1.8c0.1-0.2,0.1-0.3,0.2-0.5
				C152.1,92.5,150.7,91.9,149.3,91.3z"/>
			<path class="st1" d="M151.1,98.7c-1.4-0.6-2.8-1.2-4.2-1.8c-0.1,0.2-0.1,0.3-0.2,0.5c1.4,0.5,2.8,1.1,4.2,1.8
				C151,99.1,151,98.9,151.1,98.7z"/>
			<path class="st1" d="M149.1,91.8c-0.1,0.2-0.1,0.3-0.2,0.5c1.4,0.5,2.8,1.1,4.2,1.8c0.1-0.2,0.1-0.3,0.2-0.5
				C151.9,92.9,150.5,92.4,149.1,91.8z"/>
			<path class="st1" d="M151.3,98.2c-1.4-0.6-2.8-1.2-4.2-1.8c-0.1,0.2-0.1,0.3-0.2,0.5c1.4,0.5,2.8,1.1,4.2,1.8
				C151.1,98.6,151.2,98.4,151.3,98.2z"/>
			<path class="st1" d="M154.4,80.9c-0.7,1.3-1.4,2.7-2.1,4.1c1.4,0.6,2.8,1.1,4.2,1.8c0.7-1.4,1.4-2.7,2.1-4
				C157.2,82.1,155.8,81.5,154.4,80.9z"/>
			<path class="st1" d="M152,85.5c-0.1,0.2-0.2,0.3-0.2,0.5c1.4,0.5,2.8,1.1,4.2,1.8c0.1-0.2,0.2-0.3,0.2-0.5
				C154.8,86.6,153.4,86,152,85.5z"/>
			<path class="st1" d="M159,81.8c-1.4-0.6-2.8-1.2-4.2-1.8c-0.1,0.2-0.2,0.3-0.3,0.5c1.4,0.6,2.8,1.2,4.2,1.8
				C158.9,82.1,159,82,159,81.8z"/>
			<path class="st1" d="M152.3,85c-0.1,0.2-0.2,0.3-0.2,0.5c1.4,0.5,2.8,1.1,4.2,1.8c0.1-0.2,0.2-0.3,0.2-0.5
				C155.1,86.1,153.7,85.5,152.3,85z"/>
			<path class="st1" d="M158.8,82.3c-1.4-0.6-2.8-1.2-4.2-1.8c-0.1,0.2-0.2,0.3-0.2,0.5c1.4,0.6,2.8,1.2,4.2,1.8
				C158.6,82.6,158.7,82.4,158.8,82.3z"/>
			<path class="st1" d="M162.6,75.7c0.8-1.3,1.6-2.6,2.5-3.9c-1.4-0.7-2.8-1.3-4.2-1.9c-0.8,1.3-1.7,2.6-2.5,3.9
				C159.8,74.5,161.2,75.1,162.6,75.7z"/>
			<path class="st1" d="M165.3,71.4c0.1-0.1,0.2-0.3,0.3-0.4c-1.4-0.7-2.8-1.3-4.2-1.9c-0.1,0.1-0.2,0.3-0.3,0.4
				C162.6,70.1,164,70.8,165.3,71.4z"/>
			<path class="st1" d="M162.3,76.2c-1.4-0.7-2.8-1.3-4.2-1.8c-0.1,0.2-0.2,0.3-0.3,0.5c1.4,0.6,2.8,1.2,4.2,1.8
				C162.1,76.5,162.2,76.3,162.3,76.2z"/>
			<path class="st1" d="M165,71.9c0.1-0.1,0.2-0.3,0.3-0.4c-1.4-0.7-2.8-1.3-4.2-1.9c-0.1,0.1-0.2,0.3-0.3,0.4
				C162.3,70.6,163.7,71.2,165,71.9z"/>
			<path class="st1" d="M162.6,75.7c-1.4-0.7-2.8-1.3-4.2-1.9c-0.1,0.2-0.2,0.3-0.3,0.5c1.4,0.6,2.8,1.2,4.2,1.8
				C162.4,76,162.5,75.9,162.6,75.7z"/>
			<path class="st1" d="M165.5,63.2c1.4,0.6,2.8,1.3,4.2,2c0.9-1.2,1.8-2.5,2.8-3.7c-1.4-0.7-2.8-1.4-4.2-2
				C167.3,60.8,166.4,62,165.5,63.2z"/>
			<path class="st1" d="M173.1,60.7c-1.4-0.7-2.8-1.4-4.2-2c-0.1,0.1-0.2,0.3-0.3,0.4c1.4,0.6,2.8,1.3,4.2,2
				C172.9,61,173,60.8,173.1,60.7z"/>
			<path class="st1" d="M169,66.1c0.1-0.1,0.2-0.3,0.3-0.4c-1.4-0.7-2.8-1.3-4.2-2c-0.1,0.1-0.2,0.3-0.3,0.4
				C166.3,64.7,167.7,65.4,169,66.1z"/>
			<path class="st1" d="M172.5,61.5c0.1-0.1,0.2-0.3,0.3-0.4c-1.4-0.7-2.8-1.4-4.2-2c-0.1,0.1-0.2,0.3-0.3,0.4
				C169.7,60.2,171.1,60.8,172.5,61.5z"/>
			<path class="st1" d="M169.4,65.6c0.1-0.1,0.2-0.3,0.3-0.4c-1.4-0.7-2.8-1.3-4.2-2c-0.1,0.1-0.2,0.3-0.3,0.4
				C166.6,64.3,168,65,169.4,65.6z"/>
			<path class="st1" d="M191.2,122.6c1,2.2,2,4.5,2.8,6.9c0.1-0.3,0.1-0.6,0.2-1c-0.8-2.3-1.8-4.5-2.8-6.6
				C191.4,122.1,191.3,122.4,191.2,122.6z"/>
			<path class="st1" d="M194.3,114.2c-0.1,0.2-0.2,0.4-0.2,0.6c1,1.8,1.9,3.6,2.8,5.4c0.1-0.2,0.2-0.5,0.2-0.7
				C196.2,117.7,195.2,115.9,194.3,114.2z"/>
			<path class="st1" d="M191.4,121.9c1,2.2,2,4.4,2.8,6.6c0.1-0.3,0.2-0.6,0.2-0.8c-0.8-2.2-1.8-4.4-2.8-6.5
				C191.6,121.4,191.5,121.7,191.4,121.9z"/>
			<path class="st1" d="M194,114.8c-0.1,0.2-0.2,0.4-0.2,0.6c1,1.8,1.9,3.6,2.8,5.5c0.1-0.2,0.2-0.5,0.2-0.7
				C195.9,118.4,195,116.6,194,114.8z"/>
			<path class="st1" d="M204.7,122.1c0.9,2.3,1.7,4.7,2.5,7.1c0.1-0.3,0.2-0.6,0.3-1c-0.7-2.3-1.5-4.6-2.5-6.8
				C204.8,121.6,204.7,121.9,204.7,122.1z"/>
			<path class="st1" d="M208.3,113.7c-0.1,0.2-0.2,0.4-0.3,0.6c0.9,1.8,1.7,3.7,2.4,5.6c0.1-0.2,0.2-0.4,0.3-0.7
				C209.9,117.4,209.1,115.5,208.3,113.7z"/>
			<path class="st1" d="M203.3,105.8c0.1-0.2,0.2-0.3,0.3-0.5c-0.9-1.4-1.8-2.9-2.8-4.2c-0.1,0.2-0.2,0.3-0.3,0.5
				C201.5,102.9,202.4,104.4,203.3,105.8z"/>
			<path class="st1" d="M197.5,107.1c-0.1,0.2-0.2,0.4-0.3,0.5c1,1.5,1.9,3.1,2.8,4.7c0.1-0.2,0.2-0.4,0.3-0.6
				C199.4,110.1,198.5,108.6,197.5,107.1z"/>
			<path class="st1" d="M207.9,114.3c-0.1,0.2-0.2,0.4-0.3,0.6c0.9,1.9,1.7,3.8,2.4,5.7c0.1-0.2,0.2-0.5,0.3-0.7
				C209.6,118,208.8,116.2,207.9,114.3z"/>
			<path class="st1" d="M204.9,121.4c0.9,2.2,1.7,4.5,2.5,6.8c0.1-0.3,0.2-0.6,0.3-0.9c-0.7-2.3-1.5-4.5-2.4-6.7
				C205.1,120.9,205,121.1,204.9,121.4z"/>
			<path class="st1" d="M203,106.3c0.1-0.2,0.2-0.3,0.3-0.5c-0.9-1.4-1.8-2.9-2.8-4.3c-0.1,0.2-0.2,0.3-0.3,0.5
				C201.2,103.4,202.1,104.9,203,106.3z"/>
			<path class="st1" d="M197.8,106.6c-0.1,0.2-0.2,0.4-0.3,0.5c1,1.5,1.9,3.1,2.8,4.6c0.1-0.2,0.2-0.4,0.3-0.6
				C199.7,109.6,198.8,108.1,197.8,106.6z"/>
			<path class="st1" d="M224.3,119.9c-0.6-1.9-1.3-3.8-2.1-5.6c-0.1,0.2-0.2,0.4-0.3,0.6c0.8,1.9,1.5,3.8,2.1,5.7
				C224.1,120.3,224.2,120.1,224.3,119.9z"/>
			<path class="st1" d="M218.2,105.5c-0.8-1.5-1.6-3-2.4-4.4c-0.1,0.2-0.2,0.3-0.3,0.5c0.9,1.5,1.7,3,2.4,4.5
				C218,105.9,218.1,105.7,218.2,105.5z"/>
			<path class="st1" d="M211.1,93.8c-0.9-1.3-1.8-2.6-2.8-3.8c-0.1,0.1-0.2,0.3-0.3,0.4c1,1.2,1.9,2.5,2.8,3.8
				C210.9,94.1,211,94,211.1,93.8z"/>
			<path class="st1" d="M224,120.5c-0.6-1.9-1.3-3.8-2.1-5.7c-0.1,0.2-0.2,0.4-0.3,0.6c0.8,1.9,1.5,3.8,2.1,5.8
				C223.8,121,223.9,120.8,224,120.5z"/>
			<path class="st1" d="M217.9,106c-0.8-1.5-1.6-3-2.4-4.5c-0.1,0.2-0.2,0.3-0.3,0.5c0.9,1.5,1.7,3,2.5,4.5
				C217.7,106.4,217.8,106.2,217.9,106z"/>
			<path class="st1" d="M210.8,94.3c-0.9-1.3-1.8-2.6-2.8-3.8c-0.1,0.1-0.2,0.3-0.3,0.4c1,1.3,1.9,2.5,2.8,3.8
				C210.6,94.6,210.7,94.4,210.8,94.3z"/>
		</g>
		<g>
			<path class="st0" d="M125.9,138.4c-8.2,0-14.9,6.7-14.9,14.9h4.5c0-5.7,4.6-10.3,10.3-10.3c4.1,0,7.7,2.4,9.3,5.9
				c0.1-2.3,0.2-4.6,0.3-6.9C132.9,139.8,129.6,138.4,125.9,138.4z"/>
			<path class="st0" d="M143.3,132.1c-0.3,1.9-0.5,3.7-0.7,5.6c2.4,2.6,4.3,5.8,5.3,9.3c0.1-3.1,0.4-6.1,0.7-9.1
				C147.1,135.7,145.3,133.8,143.3,132.1z"/>
			<path class="st0" d="M125.9,125.9c-15.1,0-27.4,12.3-27.4,27.4h4.5c0-12.6,10.3-22.9,22.9-22.9c3.8,0,7.4,1,10.6,2.6
				c0.2-1.6,0.4-3.1,0.7-4.7C133.7,126.8,129.9,125.9,125.9,125.9z"/>
			<path class="st0" d="M125.9,113.3c-22.1,0-40,18-40,40h4.5c0-19.6,15.9-35.5,35.5-35.5c4.5,0,8.9,0.9,12.8,2.4
				c0.3-1.5,0.7-3,1-4.5C135.4,114.2,130.7,113.3,125.9,113.3z"/>
			<path class="st0" d="M156.8,127.9c-0.4,2.1-0.7,4.2-1,6.3c2.2,3.5,3.9,7.4,4.8,11.6c0.2-3.5,0.6-7,1-10.5
				C160.2,132.6,158.6,130.1,156.8,127.9z"/>
			<path class="st0" d="M144.8,123.3c1.9,1.2,3.6,2.6,5.3,4.1c0.3-1.7,0.7-3.4,1-5.1c-1.6-1.3-3.4-2.6-5.3-3.6
				C145.5,120.2,145.1,121.8,144.8,123.3z"/>
			<path class="st0" d="M125.9,100.7c-29,0-52.6,23.6-52.6,52.6h4.5c0-26.5,21.6-48.1,48.1-48.1c5.6,0,11,1,16.1,2.8
				c0.4-1.5,0.9-2.9,1.4-4.3C137.8,101.7,132,100.7,125.9,100.7z"/>
			<path class="st0" d="M154.7,109.3c-1.7-1.1-3.4-2.1-5.3-3c-0.5,1.5-0.9,2.9-1.4,4.4c1.8,1,3.6,2,5.3,3.2
				C153.7,112.3,154.2,110.8,154.7,109.3z"/>
			<path class="st0" d="M160.3,113.6c-0.5,1.6-1,3.2-1.4,4.9c1.7,1.6,3.3,3.4,4.8,5.3c0.4-1.8,0.9-3.6,1.4-5.4
				C163.6,116.6,162,115.1,160.3,113.6z"/>
			<path class="st0" d="M170.2,125.1c-0.5,2.2-1,4.5-1.4,6.7c2.1,4.1,3.6,8.6,4.4,13.3c0.3-3.9,0.7-7.8,1.4-11.5
				C173.4,130.5,171.9,127.7,170.2,125.1z"/>
			<path class="st0" d="M164.9,101.1c-0.6,1.5-1.2,2.9-1.8,4.4c1.7,1.3,3.3,2.7,4.8,4.2c0.6-1.5,1.1-3.1,1.8-4.6
				C168.1,103.6,166.5,102.3,164.9,101.1z"/>
			<path class="st0" d="M183.7,123.3c-0.7,2.3-1.2,4.6-1.8,7c1.8,4.5,3.2,9.2,3.9,14.2c0.3-4.1,0.9-8.2,1.7-12.1
				C186.5,129.2,185.2,126.2,183.7,123.3z"/>
			<path class="st0" d="M159.2,97.3c-1.7-1-3.5-2-5.2-2.8c-0.6,1.4-1.2,2.8-1.8,4.2c1.8,0.9,3.6,1.8,5.2,2.9
				C158,100.1,158.6,98.7,159.2,97.3z"/>
			<path class="st0" d="M173,115.2c1.6,1.9,3,4,4.4,6.1c0.5-1.9,1.1-3.7,1.7-5.6c-1.4-1.9-2.8-3.8-4.4-5.5
				C174.1,111.9,173.6,113.5,173,115.2z"/>
			<path class="st0" d="M125.9,88.1c-29.4,0-54.2,19.5-62.4,46.3c1.1,3.5,1.8,7.2,2.3,10.9c3.9-29.7,29.4-52.6,60.1-52.6
				c7.1,0,13.9,1.2,20.2,3.5c0.6-1.4,1.2-2.8,1.8-4.2C141,89.5,133.6,88.1,125.9,88.1z"/>
			<path class="st0" d="M187.6,132.3c-0.8,4-1.4,8-1.7,12.1c0.1,0.9,0.2,1.7,0.3,2.6c0.3-4.7,0.9-9.2,1.7-13.7
				C187.8,133,187.7,132.7,187.6,132.3z"/>
			<path class="st0" d="M187.9,133.4c-0.9,4.5-1.5,9-1.7,13.7c0.2,2.1,0.3,4.1,0.3,6.2c0-6.4,0.6-12.7,1.8-18.8
				C188.2,134.1,188,133.7,187.9,133.4z"/>
			<path class="st0" d="M168.3,93.6c1.6,1.2,3.2,2.4,4.8,3.7c0.7-1.4,1.4-2.8,2.1-4.2c-1.5-1.3-3.2-2.5-4.8-3.6
				C169.6,90.9,168.9,92.3,168.3,93.6z"/>
			<path class="st0" d="M125.9,80.1c8.9,0,17.5,1.6,25.4,4.6c0.7-1.4,1.4-2.7,2.1-4.1c-8.6-3.2-17.8-5-27.5-5
				c-30.4,0-56.7,17.5-69.5,43c1,1.6,1.9,3.2,2.7,4.8C70.5,97.9,96.1,80.1,125.9,80.1z"/>
			<path class="st0" d="M197.2,122.3c-0.8,2.3-1.5,4.7-2.1,7.1c1.6,4.7,2.8,9.6,3.4,14.7c0.4-4.2,1.1-8.3,2.1-12.3
				C199.7,128.6,198.5,125.4,197.2,122.3z"/>
			<path class="st0" d="M159.5,83.2c-0.7,1.3-1.4,2.7-2.1,4c1.8,0.9,3.5,1.8,5.2,2.8c0.7-1.4,1.4-2.7,2.1-4
				C163,85,161.3,84,159.5,83.2z"/>
			<path class="st0" d="M180.3,97.8c-0.7,1.4-1.4,2.9-2.1,4.3c1.5,1.6,3,3.2,4.4,4.8c0.7-1.5,1.4-3.1,2.1-4.5
				C183.2,100.8,181.8,99.3,180.3,97.8z"/>
			<path class="st0" d="M50.3,134.7c1.3,3.4,2.2,6.9,2.7,10.6c0.5-4.5,1.4-8.9,2.7-13.1c-0.8-2.1-1.7-4.1-2.7-6.1
				C51.9,128.9,51.1,131.8,50.3,134.7z"/>
			<path class="st0" d="M187.1,113.2c1.4,2.1,2.7,4.4,3.9,6.7c0.6-1.9,1.3-3.8,2.1-5.6c-1.2-2.1-2.5-4.1-3.9-6
				C188.5,109.9,187.8,111.5,187.1,113.2z"/>
			<path class="st0" d="M200.9,132.9c-0.1-0.3-0.2-0.7-0.3-1c-1,4-1.7,8.1-2.1,12.3c0.1,1,0.2,1.9,0.3,2.9c0.2,2.1,0.3,4.1,0.3,6.3
				c0-6.6,0.7-13.1,2.1-19.3C201.1,133.6,201,133.3,200.9,132.9z"/>
			<path class="st0" d="M191,119.9c0.1,0.2,0.2,0.4,0.3,0.6c0.6-1.9,1.3-3.8,2.1-5.7c-0.1-0.2-0.2-0.4-0.3-0.6
				C192.3,116.1,191.6,118,191,119.9z"/>
			<path class="st0" d="M191.3,120.5c0.1,0.2,0.2,0.4,0.3,0.6c0.6-1.9,1.3-3.9,2.1-5.8c-0.1-0.2-0.2-0.4-0.3-0.6
				C192.7,116.7,192,118.6,191.3,120.5z"/>
			<path class="st0" d="M48.1,153.3h4.5c0-5.8-1-11.4-2.7-16.7C48.7,142,48.1,147.6,48.1,153.3z"/>
			<path class="st0" d="M50.1,135.7c1.4,3.8,2.3,7.9,2.7,12.1c0.1-0.8,0.1-1.6,0.2-2.5c-0.6-3.7-1.5-7.2-2.7-10.6
				C50.3,135,50.2,135.3,50.1,135.7z"/>
			<path class="st0" d="M49.9,136.6c1.8,5.2,2.7,10.8,2.7,16.7c0-1.9,0.1-3.7,0.2-5.6c-0.4-4.2-1.4-8.2-2.7-12.1
				C50,136,50,136.3,49.9,136.6z"/>
			<path class="st0" d="M125.9,67.5c11.1,0,21.8,2.2,31.5,6c0.8-1.3,1.6-2.6,2.5-3.9c-10.5-4.3-22-6.7-34-6.7
				c-33.2,0-62.2,18-77.9,44.7c1.1,1.2,2.2,2.3,3.2,3.6C65.9,85.1,93.8,67.5,125.9,67.5z"/>
			<path class="st0" d="M44.6,113.8c-1,2-1.8,4-2.7,6.1c1.1,1.4,2.2,2.9,3.2,4.4c0.8-2.2,1.7-4.4,2.7-6.6
				C46.8,116.4,45.7,115.1,44.6,113.8z"/>
			<path class="st0" d="M210.7,122.1c-0.9,2.3-1.7,4.7-2.5,7.1c1.4,4.8,2.4,9.8,3,14.9c0.5-4.2,1.3-8.3,2.4-12.3
				C212.8,128.5,211.8,125.3,210.7,122.1z"/>
			<path class="st0" d="M179.2,86.1c0.8-1.3,1.6-2.6,2.5-3.8c-1.6-1.2-3.1-2.4-4.8-3.5c-0.8,1.3-1.7,2.5-2.5,3.8
				C176,83.7,177.6,84.9,179.2,86.1z"/>
			<path class="st0" d="M188.6,94.9c0.8-1.4,1.6-2.7,2.4-4c-1.4-1.5-2.8-2.9-4.3-4.3c-0.8,1.3-1.7,2.6-2.5,3.9
				C185.8,91.9,187.2,93.4,188.6,94.9z"/>
			<path class="st0" d="M168.8,79c0.8-1.3,1.6-2.6,2.5-3.8c-1.7-1-3.5-1.9-5.2-2.8c-0.8,1.3-1.7,2.6-2.5,3.8
				C165.3,77.1,167.1,78,168.8,79z"/>
			<path class="st0" d="M201.2,112.3c1.2,2.3,2.4,4.6,3.4,7c0.8-1.9,1.6-3.8,2.4-5.6c-1.1-2.2-2.2-4.3-3.4-6.3
				C202.8,109,202,110.6,201.2,112.3z"/>
			<path class="st0" d="M197.1,105.5c0.8-1.5,1.6-3,2.4-4.4c-1.2-1.7-2.5-3.5-3.9-5.1c-0.9,1.4-1.7,2.8-2.5,4.2
				C194.6,101.9,195.9,103.7,197.1,105.5z"/>
			<path class="st0" d="M37.2,135.9c1.5,3.1,2.5,6.4,3.2,9.9c0.4-4.3,1.1-8.6,2.1-12.7c-0.9-2-2-3.8-3.2-5.6
				C38.4,130.2,37.7,133,37.2,135.9z"/>
			<path class="st0" d="M213.6,131.8c-1.1,4-2,8.1-2.4,12.3c0.1,1,0.2,1.9,0.2,2.9c0.4-4.9,1.2-9.6,2.4-14.2
				C213.8,132.5,213.7,132.2,213.6,131.8z"/>
			<path class="st0" d="M213.9,132.9c-1.2,4.6-2.1,9.3-2.4,14.2c0.1,2.1,0.3,4.1,0.3,6.3c0-6.7,0.8-13.2,2.4-19.3
				C214,133.6,214,133.2,213.9,132.9z"/>
			<path class="st0" d="M204.6,119.3c0.1,0.2,0.2,0.4,0.3,0.7c0.8-1.9,1.6-3.8,2.4-5.6c-0.1-0.2-0.2-0.4-0.3-0.6
				C206.2,115.5,205.4,117.4,204.6,119.3z"/>
			<path class="st0" d="M204.9,120c0.1,0.2,0.2,0.5,0.3,0.7c0.8-1.9,1.6-3.8,2.4-5.7c-0.1-0.2-0.2-0.4-0.3-0.6
				C206.5,116.2,205.7,118,204.9,120z"/>
			<path class="st0" d="M197.5,106c0.8-1.5,1.6-3,2.4-4.5c-0.1-0.2-0.2-0.3-0.3-0.5c-0.8,1.5-1.7,2.9-2.4,4.4
				C197.2,105.7,197.3,105.9,197.5,106z"/>
			<path class="st0" d="M197.8,106.6c0.8-1.5,1.6-3,2.5-4.5c-0.1-0.2-0.2-0.3-0.3-0.5c-0.9,1.5-1.7,3-2.4,4.5
				C197.6,106.2,197.7,106.4,197.8,106.6z"/>
			<path class="st0" d="M35.5,153.3H40c0-5.5-1.1-10.8-3.2-15.6C36,142.8,35.5,148,35.5,153.3z"/>
			<path class="st0" d="M37,136.8c1.6,3.5,2.7,7.3,3.2,11.3c0-0.8,0.1-1.5,0.2-2.3c-0.6-3.5-1.7-6.8-3.2-9.9
				C37.1,136.2,37.1,136.5,37,136.8z"/>
			<path class="st0" d="M36.9,137.7c2,4.8,3.2,10.1,3.2,15.6c0-1.8,0.1-3.5,0.2-5.2c-0.5-4-1.6-7.8-3.2-11.3
				C37,137.1,36.9,137.4,36.9,137.7z"/>
			<path class="st0" d="M41.5,121c-0.7,1.7-1.3,3.4-1.8,5.2c1.2,1.7,2.2,3.5,3.2,5.4c0.5-2,1.2-4,1.8-6
				C43.7,124,42.6,122.4,41.5,121z"/>
			<path class="st0" d="M39.3,127.5c1.2,1.8,2.3,3.7,3.2,5.6c0.1-0.3,0.1-0.5,0.2-0.8c-0.9-1.9-2-3.7-3.2-5.5
				C39.4,127,39.3,127.2,39.3,127.5z"/>
			<path class="st0" d="M41.9,119.9c-0.1,0.2-0.1,0.4-0.2,0.6c1.1,1.4,2.2,2.9,3.2,4.5c0.1-0.2,0.1-0.4,0.2-0.6
				C44.1,122.7,43.1,121.3,41.9,119.9z"/>
			<path class="st0" d="M39.5,126.8c1.2,1.8,2.2,3.6,3.2,5.5c0.1-0.3,0.1-0.5,0.2-0.8c-0.9-1.9-2-3.7-3.2-5.4
				C39.6,126.4,39.5,126.6,39.5,126.8z"/>
			<path class="st0" d="M41.7,120.4c-0.1,0.2-0.2,0.4-0.2,0.6c1.1,1.5,2.2,3,3.2,4.5c0.1-0.2,0.1-0.4,0.2-0.6
				C43.9,123.4,42.8,121.9,41.7,120.4z"/>
			<path class="st0" d="M125.9,54.9c13.7,0,26.8,2.8,38.7,7.9c0.9-1.3,1.8-2.5,2.8-3.7c-12.7-5.6-26.7-8.7-41.4-8.7
				c-37,0-69.4,19.6-87.6,48.9c1.2,0.9,2.5,1.8,3.6,2.8C59.2,73.8,90.4,54.9,125.9,54.9z"/>
			<path class="st0" d="M186.3,75.7c0.9-1.2,1.8-2.4,2.8-3.6c-1.6-1.2-3.2-2.4-4.8-3.5c-1,1.2-1.9,2.4-2.8,3.6
				C183.1,73.3,184.7,74.5,186.3,75.7z"/>
			<path class="st0" d="M211.7,105.3c0.9-1.4,1.8-2.9,2.8-4.2c-1.1-1.8-2.2-3.7-3.4-5.4c-1,1.3-1.9,2.7-2.8,4
				C209.5,101.5,210.6,103.4,211.7,105.3z"/>
			<path class="st0" d="M204.2,93.8c0.9-1.3,1.8-2.6,2.8-3.8c-1.2-1.6-2.5-3.2-3.9-4.7c-1,1.2-1.9,2.4-2.8,3.7
				C201.7,90.6,203,92.2,204.2,93.8z"/>
			<path class="st0" d="M195.7,84.1c0.9-1.2,1.9-2.4,2.8-3.6c-1.4-1.4-2.9-2.8-4.4-4.1c-1,1.2-1.9,2.4-2.8,3.6
				C192.9,81.3,194.3,82.7,195.7,84.1z"/>
			<path class="st0" d="M223.8,144.3c0.6-4.1,1.5-8.2,2.8-12c-0.7-3.3-1.5-6.5-2.5-9.7c-1,2.2-2,4.5-2.8,6.9
				C222.5,134.3,223.4,139.3,223.8,144.3z"/>
			<path class="st0" d="M175.9,68.6c0.9-1.2,1.9-2.4,2.8-3.6c-1.7-1-3.5-2-5.3-2.9c-1,1.2-1.9,2.4-2.8,3.7
				C172.4,66.6,174.2,67.6,175.9,68.6z"/>
			<path class="st0" d="M218.3,119.5c0.9-1.8,1.8-3.6,2.8-5.3c-0.9-2.2-1.9-4.4-3-6.5c-1,1.5-1.9,3.1-2.8,4.7
				C216.4,114.7,217.4,117,218.3,119.5z"/>
			<path class="st0" d="M224,147c0.4-4.7,1.4-9.3,2.8-13.7c-0.1-0.3-0.1-0.7-0.2-1c-1.3,3.9-2.2,7.9-2.8,12
				C223.9,145.2,224,146.1,224,147z"/>
			<path class="st0" d="M224.3,153.3c0-6.5,1-12.9,2.8-18.8c-0.1-0.4-0.1-0.8-0.2-1.1c-1.4,4.4-2.4,9-2.8,13.7
				C224.2,149.1,224.3,151.2,224.3,153.3z"/>
			<path class="st0" d="M218.5,120.2c0.9-1.8,1.8-3.6,2.8-5.4c-0.1-0.2-0.2-0.4-0.2-0.6c-1,1.7-1.9,3.5-2.8,5.3
				C218.4,119.7,218.4,120,218.5,120.2z"/>
			<path class="st0" d="M218.8,120.9c0.9-1.9,1.8-3.7,2.8-5.5c-0.1-0.2-0.2-0.4-0.2-0.6c-1,1.8-1.9,3.6-2.8,5.4
				C218.6,120.4,218.7,120.7,218.8,120.9z"/>
			<path class="st0" d="M212,105.8c0.9-1.4,1.8-2.9,2.8-4.3c-0.1-0.2-0.2-0.3-0.3-0.5c-1,1.4-1.9,2.8-2.8,4.2
				C211.8,105.5,211.9,105.6,212,105.8z"/>
			<path class="st0" d="M212.3,106.3c0.9-1.5,1.8-2.9,2.8-4.3c-0.1-0.2-0.2-0.3-0.3-0.5c-1,1.4-1.9,2.8-2.8,4.3
				C212.1,106,212.2,106.1,212.3,106.3z"/>
			<path class="st0" d="M204.5,94.3c0.9-1.3,1.8-2.6,2.8-3.8c-0.1-0.1-0.2-0.3-0.3-0.4c-1,1.2-1.9,2.5-2.8,3.8
				C204.3,94,204.4,94.1,204.5,94.3z"/>
			<path class="st0" d="M204.9,94.7c0.9-1.3,1.8-2.6,2.8-3.8c-0.1-0.1-0.2-0.3-0.3-0.4c-1,1.2-1.9,2.5-2.8,3.8
				C204.7,94.4,204.8,94.6,204.9,94.7z"/>
			<path class="st0" d="M174.6,133.5c-0.7,3.8-1.1,7.6-1.4,11.5c0.1,0.8,0.3,1.6,0.3,2.4c0.2-4.4,0.7-8.7,1.4-13
				C174.8,134.1,174.7,133.8,174.6,133.5z"/>
			<path class="st0" d="M175,134.4c-0.7,4.3-1.2,8.6-1.4,13c0.2,1.9,0.4,3.9,0.4,5.9c0-6.1,0.5-12.1,1.4-17.9
				C175.2,135.1,175.1,134.7,175,134.4z"/>
			<path class="st0" d="M161.6,135.2c-0.5,3.5-0.8,7-1,10.5c0.2,0.7,0.3,1.5,0.4,2.2c0.2-4,0.5-8,1-11.9
				C161.8,135.8,161.7,135.5,161.6,135.2z"/>
			<path class="st0" d="M162,136.1c-0.5,3.9-0.9,7.9-1,11.9c0.3,1.7,0.4,3.5,0.4,5.4c0-5.5,0.4-11,1-16.4
				C162.2,136.7,162.1,136.4,162,136.1z"/>
			<path class="st0" d="M148.5,137.9c-0.3,3-0.6,6-0.7,9.1c0.2,0.6,0.3,1.2,0.5,1.8c0.1-3.4,0.3-6.8,0.7-10.2
				C148.8,138.4,148.7,138.1,148.5,137.9z"/>
			<path class="st0" d="M149,138.6c-0.4,3.4-0.6,6.8-0.7,10.2c0.3,1.4,0.4,2.9,0.4,4.5c0-4.7,0.2-9.4,0.7-14
				C149.3,139.1,149.1,138.8,149,138.6z"/>
			<path class="st0" d="M136.2,153.3h4.5c0-4-1.6-7.6-4.2-10.3C136.3,146.4,136.2,149.8,136.2,153.3z"/>
			<g>
				<path class="st0" d="M135.5,142c-0.2,2.3-0.3,4.6-0.3,6.9c0.2,0.4,0.4,0.8,0.5,1.2c0.1-2.6,0.2-5.1,0.3-7.7
					C135.9,142.3,135.7,142.2,135.5,142z"/>
				<path class="st0" d="M136,142.5c-0.2,2.5-0.3,5.1-0.3,7.7c0.3,1,0.5,2,0.5,3.1c0-3.5,0.1-6.9,0.4-10.3
					C136.4,142.8,136.2,142.7,136,142.5z"/>
			</g>
			<g>
				<path class="st0" d="M137.2,128.3c-0.3,1.6-0.5,3.1-0.7,4.7c0.2,0.1,0.3,0.2,0.5,0.3c0.2-1.6,0.4-3.2,0.7-4.7
					C137.5,128.5,137.3,128.4,137.2,128.3z"/>
				<path class="st0" d="M137.6,128.6c-0.3,1.6-0.5,3.1-0.7,4.7c0.2,0.1,0.3,0.2,0.5,0.3c0.2-1.6,0.4-3.2,0.7-4.8
					C138,128.7,137.8,128.6,137.6,128.6z"/>
			</g>
			<g>
				<path class="st0" d="M139.7,115.8c-0.4,1.5-0.7,3-1,4.5c0.2,0.1,0.3,0.1,0.5,0.2c0.3-1.5,0.7-3,1-4.5
					C140.1,115.9,139.9,115.8,139.7,115.8z"/>
				<path class="st0" d="M140.2,116c-0.4,1.5-0.7,3-1,4.5c0.2,0.1,0.3,0.1,0.5,0.2c0.3-1.5,0.7-3,1-4.5
					C140.6,116.1,140.4,116,140.2,116z"/>
			</g>
			<g>
				<path class="st0" d="M143.3,103.7c-0.5,1.4-1,2.9-1.4,4.3c0.2,0.1,0.3,0.1,0.5,0.2c0.4-1.5,0.9-2.9,1.4-4.3
					C143.6,103.8,143.5,103.7,143.3,103.7z"/>
				<path class="st0" d="M143.8,103.8c-0.5,1.4-1,2.9-1.4,4.3c0.2,0.1,0.3,0.1,0.5,0.2c0.4-1.5,0.9-2.9,1.4-4.3
					C144.1,104,144,103.9,143.8,103.8z"/>
			</g>
			<g>
				<path class="st0" d="M147.9,91.9c-0.6,1.4-1.2,2.8-1.8,4.2c0.2,0.1,0.3,0.1,0.5,0.2c0.6-1.4,1.2-2.8,1.8-4.2
					C148.2,92,148,92,147.9,91.9z"/>
				<path class="st0" d="M148.4,92.1c-0.6,1.4-1.2,2.8-1.8,4.2c0.2,0.1,0.3,0.1,0.5,0.2c0.6-1.4,1.2-2.8,1.8-4.2
					C148.7,92.2,148.5,92.2,148.4,92.1z"/>
			</g>
			<g>
				<path class="st0" d="M153.9,80.7c-0.2-0.1-0.3-0.1-0.5-0.2c-0.7,1.3-1.4,2.7-2.1,4.1c0.2,0.1,0.3,0.1,0.5,0.2
					C152.4,83.4,153.1,82.1,153.9,80.7z"/>
				<path class="st0" d="M154.4,80.9c-0.2-0.1-0.3-0.1-0.5-0.2c-0.7,1.3-1.4,2.7-2.1,4.1c0.2,0.1,0.3,0.1,0.5,0.2
					C152.9,83.6,153.6,82.3,154.4,80.9z"/>
			</g>
			<g>
				<path class="st0" d="M157.9,73.7c0.8-1.3,1.6-2.6,2.5-3.9c-0.2-0.1-0.3-0.1-0.5-0.2c-0.8,1.3-1.7,2.6-2.5,3.9
					C157.6,73.6,157.7,73.6,157.9,73.7z"/>
				<path class="st0" d="M158.4,73.9c0.8-1.3,1.6-2.6,2.5-3.9c-0.2-0.1-0.3-0.1-0.5-0.2c-0.8,1.3-1.7,2.6-2.5,3.9
					C158.1,73.8,158.2,73.8,158.4,73.9z"/>
			</g>
			<g>
				<path class="st0" d="M165,63c0.9-1.3,1.8-2.5,2.8-3.7c-0.2-0.1-0.3-0.1-0.5-0.2c-0.9,1.2-1.9,2.5-2.8,3.7
					C164.7,62.9,164.8,63,165,63z"/>
				<path class="st0" d="M165.5,63.2c0.9-1.3,1.8-2.5,2.8-3.7c-0.2-0.1-0.3-0.1-0.5-0.2c-0.9,1.2-1.9,2.5-2.8,3.7
					C165.2,63.1,165.3,63.2,165.5,63.2z"/>
			</g>
			<path class="st0" d="M60.7,153.3h4.5c0-5.9-0.8-11.6-2.3-17C61.5,141.7,60.7,147.4,60.7,153.3z"/>
			<path class="st0" d="M55.8,119.6c-0.8,1.7-1.6,3.4-2.3,5.2c1,1.9,1.9,3.8,2.7,5.8c0.7-2.1,1.4-4.1,2.3-6.1
				C57.7,122.8,56.8,121.2,55.8,119.6z"/>
			<path class="st0" d="M48.3,116.6c0.7-1.5,1.5-3,2.3-4.5c-1-1.2-2.1-2.4-3.2-3.6c-0.8,1.4-1.6,2.8-2.3,4.2
				C46.2,114,47.3,115.3,48.3,116.6z"/>
			<path class="st0" d="M56.3,118.5c-0.1,0.2-0.2,0.4-0.3,0.5c1,1.6,1.9,3.2,2.7,4.9c0.1-0.2,0.2-0.4,0.3-0.6
				C58.2,121.7,57.3,120.1,56.3,118.5z"/>
			<path class="st0" d="M53,126.1c1,2,1.9,4,2.7,6.1c0.1-0.3,0.2-0.5,0.2-0.8c-0.8-2-1.7-4-2.7-5.9C53.2,125.6,53.1,125.9,53,126.1z
				"/>
			<path class="st0" d="M51.1,111.2c-1-1.2-2.1-2.4-3.2-3.6c-0.1,0.2-0.2,0.3-0.3,0.5c1.1,1.2,2.2,2.3,3.2,3.6
				C50.9,111.5,51,111.4,51.1,111.2z"/>
			<path class="st0" d="M44.8,113.3c-0.1,0.2-0.2,0.3-0.3,0.5c1.1,1.3,2.2,2.6,3.2,3.9c0.1-0.2,0.2-0.4,0.2-0.5
				C47,115.8,46,114.5,44.8,113.3z"/>
			<path class="st0" d="M63.5,134.3c-0.1,0.3-0.2,0.6-0.3,1c-0.1,0.3-0.2,0.6-0.3,1c1.5,5.4,2.3,11.1,2.3,17c0-1.9,0.1-3.8,0.3-5.6
				c0.1-0.8,0.2-1.6,0.3-2.4C65.3,141.5,64.5,137.9,63.5,134.3z"/>
			<path class="st0" d="M56.1,119c-0.1,0.2-0.2,0.4-0.3,0.5c1,1.6,1.9,3.3,2.7,5c0.1-0.2,0.2-0.4,0.3-0.6
				C57.9,122.3,57,120.6,56.1,119z"/>
			<path class="st0" d="M53.3,125.4c1,1.9,1.9,3.9,2.7,5.9c0.1-0.3,0.2-0.5,0.3-0.8c-0.8-2-1.7-3.9-2.7-5.8
				C53.4,125,53.3,125.2,53.3,125.4z"/>
			<path class="st0" d="M50.8,111.7c-1-1.2-2.1-2.4-3.2-3.6c-0.1,0.2-0.2,0.3-0.3,0.5c1.1,1.2,2.2,2.4,3.2,3.6
				C50.6,112,50.7,111.8,50.8,111.7z"/>
			<path class="st0" d="M45.1,112.8c-0.1,0.2-0.2,0.3-0.3,0.5c1.1,1.2,2.2,2.5,3.2,3.9c0.1-0.2,0.2-0.4,0.2-0.5
				C47.3,115.3,46.2,114,45.1,112.8z"/>
			<g>
				<path class="st0" d="M41.4,102.9c-1.2-1-2.4-1.9-3.6-2.8c-0.8,1.3-1.5,2.6-2.3,4c1.2,0.9,2.5,1.8,3.6,2.8
					C39.8,105.6,40.6,104.3,41.4,102.9z"/>
				<path class="st0" d="M41.9,102c-1.2-1-2.4-1.9-3.6-2.8c-0.1,0.1-0.2,0.3-0.3,0.4c1.2,0.9,2.5,1.8,3.6,2.8
					C41.7,102.3,41.8,102.2,41.9,102z"/>
				<path class="st0" d="M31.2,126.6c0.6-2.2,1.3-4.4,2.1-6.5c-1.2-1.2-2.4-2.2-3.6-3.3c-0.8,2-1.5,4-2.1,6
					C28.8,124,30,125.3,31.2,126.6z"/>
				<path class="st0" d="M24,138.1c1.7,2.6,2.9,5.5,3.7,8.6c0.3-4,0.8-7.9,1.5-11.7c-1.1-1.7-2.3-3.3-3.6-4.8
					C24.9,132.8,24.4,135.4,24,138.1z"/>
				<path class="st0" d="M38.6,107.9c-1.2-1-2.4-2-3.6-2.9c-0.9,1.8-1.8,3.6-2.7,5.4c1.3,0.9,2.5,1.9,3.6,3
					C36.7,111.6,37.6,109.7,38.6,107.9z"/>
				<path class="st0" d="M22.9,153.3h4.5c0-4.9-1.3-9.6-3.6-13.6C23.2,144.2,22.9,148.7,22.9,153.3z"/>
				<path class="st0" d="M23.9,138.9c1.8,3,3,6.3,3.6,9.8c0-0.7,0.1-1.3,0.1-2c-0.7-3.1-2-6-3.7-8.6C24,138.3,24,138.6,23.9,138.9z"
					/>
				<path class="st0" d="M23.8,139.7c2.3,4,3.6,8.6,3.6,13.6c0-1.5,0-3.1,0.1-4.6c-0.6-3.5-1.8-6.9-3.6-9.8
					C23.9,139.2,23.9,139.4,23.8,139.7z"/>
				<path class="st0" d="M27.2,124c-0.5,1.7-0.9,3.3-1.4,5c1.3,1.4,2.5,2.9,3.6,4.5c0.4-1.9,0.9-3.8,1.4-5.7
					C29.7,126.4,28.5,125.1,27.2,124z"/>
				<path class="st0" d="M31,127.2c0.1-0.2,0.1-0.4,0.2-0.6c-1.1-1.3-2.4-2.6-3.7-3.8c-0.1,0.2-0.1,0.4-0.2,0.6
					C28.6,124.6,29.9,125.8,31,127.2z"/>
				<path class="st0" d="M25.5,130.2c1.3,1.5,2.6,3.1,3.6,4.8c0-0.3,0.1-0.5,0.1-0.8c-1.1-1.7-2.3-3.2-3.6-4.7
					C25.6,129.8,25.6,130,25.5,130.2z"/>
				<path class="st0" d="M30.8,127.8c0.1-0.2,0.1-0.4,0.2-0.6c-1.1-1.3-2.3-2.6-3.6-3.8c-0.1,0.2-0.1,0.4-0.2,0.6
					C28.5,125.1,29.7,126.4,30.8,127.8z"/>
				<path class="st0" d="M25.7,129.6c1.3,1.4,2.5,3,3.6,4.7c0-0.3,0.1-0.5,0.1-0.8c-1.1-1.6-2.3-3.1-3.6-4.5
					C25.8,129.2,25.7,129.4,25.7,129.6z"/>
				<path class="st0" d="M35.4,114.5c-1.2-1.1-2.4-2.1-3.6-3c-0.6,1.4-1.2,2.9-1.8,4.3c1.3,1,2.5,2.1,3.6,3.2
					C34.2,117.5,34.8,115.9,35.4,114.5z"/>
				<path class="st0" d="M33.4,119.5c-1.1-1.1-2.4-2.2-3.6-3.2c-0.1,0.2-0.1,0.3-0.2,0.5c1.3,1,2.5,2.1,3.6,3.3
					C33.3,119.9,33.4,119.7,33.4,119.5z"/>
				<path class="st0" d="M35.9,113.5c-1.2-1.1-2.4-2.1-3.6-3c-0.1,0.2-0.1,0.3-0.2,0.5c1.3,0.9,2.5,1.9,3.6,3
					C35.8,113.8,35.8,113.6,35.9,113.5z"/>
				<path class="st0" d="M33.6,119c-1.2-1.1-2.4-2.2-3.6-3.2c-0.1,0.2-0.1,0.3-0.2,0.5c1.3,1,2.5,2.1,3.6,3.2
					C33.5,119.3,33.6,119.2,33.6,119z"/>
				<path class="st0" d="M35.7,114c-1.2-1.1-2.4-2.1-3.6-3c-0.1,0.2-0.1,0.3-0.2,0.5c1.3,1,2.5,2,3.6,3
					C35.5,114.3,35.6,114.1,35.7,114z"/>
				<path class="st0" d="M38.8,107.4c-1.2-1-2.4-1.9-3.6-2.9c-0.1,0.2-0.2,0.3-0.2,0.5c1.3,0.9,2.5,1.9,3.6,2.9
					C38.7,107.8,38.7,107.6,38.8,107.4z"/>
				<path class="st0" d="M39.1,107c-1.2-1-2.4-1.9-3.6-2.8c-0.1,0.2-0.2,0.3-0.2,0.5c1.3,0.9,2.5,1.9,3.6,2.9
					C38.9,107.3,39,107.1,39.1,107z"/>
				<path class="st0" d="M41.6,102.5c-1.2-1-2.4-1.9-3.6-2.8c-0.1,0.1-0.2,0.3-0.3,0.4c1.2,0.9,2.5,1.8,3.6,2.8
					C41.4,102.8,41.5,102.6,41.6,102.5z"/>
			</g>
			<path class="st0" d="M177.4,121.3c0.1,0.2,0.3,0.4,0.4,0.6c0.5-1.9,1.1-3.8,1.7-5.6c-0.1-0.2-0.3-0.4-0.4-0.5
				C178.5,117.6,177.9,119.5,177.4,121.3z"/>
			<path class="st0" d="M184.6,102.4c-0.7,1.5-1.4,3-2.1,4.5c0.1,0.2,0.2,0.3,0.4,0.5c0.7-1.5,1.4-3.1,2.1-4.6
				C184.8,102.7,184.7,102.5,184.6,102.4z"/>
			<path class="st0" d="M189,95.3c0.8-1.4,1.6-2.7,2.4-4c-0.1-0.1-0.2-0.3-0.4-0.4c-0.8,1.3-1.7,2.7-2.4,4
				C188.8,95,188.9,95.1,189,95.3z"/>
			<path class="st0" d="M196.1,84.5c0.9-1.2,1.9-2.4,2.8-3.6c-0.1-0.1-0.2-0.3-0.4-0.4c-1,1.2-1.9,2.4-2.8,3.6
				C195.8,84.2,196,84.3,196.1,84.5z"/>
			<path class="st0" d="M177.7,121.9c0.1,0.2,0.2,0.4,0.4,0.6c0.5-1.9,1.1-3.8,1.8-5.7c-0.1-0.2-0.3-0.3-0.4-0.5
				C178.9,118.1,178.3,120,177.7,121.9z"/>
			<path class="st0" d="M185,102.8c-0.7,1.5-1.4,3-2.1,4.6c0.1,0.2,0.2,0.3,0.4,0.5c0.7-1.6,1.4-3.1,2.1-4.6
				C185.2,103.1,185.1,103,185,102.8z"/>
			<path class="st0" d="M189.4,95.7c0.8-1.4,1.6-2.7,2.4-4c-0.1-0.1-0.2-0.3-0.4-0.4c-0.8,1.3-1.7,2.7-2.4,4
				C189.1,95.4,189.3,95.5,189.4,95.7z"/>
			<path class="st0" d="M196.5,84.8c0.9-1.2,1.9-2.4,2.8-3.6c-0.1-0.1-0.2-0.3-0.4-0.4c-1,1.2-1.9,2.4-2.8,3.6
				C196.2,84.6,196.3,84.7,196.5,84.8z"/>
			<path class="st0" d="M163.7,123.7c0.1,0.2,0.3,0.3,0.4,0.5c0.4-1.8,0.9-3.7,1.4-5.5c-0.1-0.2-0.3-0.3-0.4-0.5
				C164.6,120.1,164.1,121.9,163.7,123.7z"/>
			<path class="st0" d="M169.7,105c-0.6,1.5-1.2,3.1-1.8,4.6c0.1,0.1,0.3,0.3,0.4,0.4c0.6-1.5,1.1-3.1,1.7-4.6
				C169.9,105.3,169.8,105.2,169.7,105z"/>
			<path class="st0" d="M173,97.3c0.1,0.1,0.3,0.2,0.4,0.4c0.7-1.4,1.4-2.8,2.1-4.2c-0.1-0.1-0.3-0.2-0.4-0.3
				C174.4,94.6,173.7,95.9,173,97.3z"/>
			<path class="st0" d="M179.6,86.4c0.8-1.3,1.6-2.6,2.5-3.8c-0.1-0.1-0.3-0.2-0.4-0.3c-0.8,1.3-1.7,2.5-2.5,3.8
				C179.3,86.2,179.5,86.3,179.6,86.4z"/>
			<path class="st0" d="M186.7,76c0.9-1.2,1.8-2.4,2.8-3.6c-0.1-0.1-0.3-0.2-0.4-0.3c-1,1.2-1.9,2.4-2.8,3.6
				C186.4,75.8,186.5,75.9,186.7,76z"/>
			<path class="st0" d="M164.1,124.3c0.1,0.2,0.3,0.4,0.4,0.6c0.4-1.9,0.9-3.7,1.4-5.5c-0.1-0.2-0.3-0.3-0.4-0.5
				C165,120.6,164.5,122.4,164.1,124.3z"/>
			<path class="st0" d="M170.1,105.4c-0.6,1.5-1.2,3.1-1.7,4.6c0.1,0.1,0.3,0.3,0.4,0.4c0.6-1.6,1.1-3.1,1.7-4.6
				C170.3,105.7,170.2,105.6,170.1,105.4z"/>
			<path class="st0" d="M173.5,97.7c0.1,0.1,0.3,0.2,0.4,0.4c0.7-1.4,1.4-2.8,2.1-4.2c-0.1-0.1-0.3-0.2-0.4-0.4
				C174.8,94.9,174.1,96.3,173.5,97.7z"/>
			<path class="st0" d="M180,86.8c0.8-1.3,1.6-2.6,2.5-3.8c-0.1-0.1-0.3-0.2-0.4-0.3c-0.8,1.3-1.7,2.5-2.5,3.8
				C179.7,86.6,179.9,86.7,180,86.8z"/>
			<path class="st0" d="M187.1,76.3c0.9-1.2,1.8-2.4,2.8-3.6c-0.1-0.1-0.3-0.2-0.4-0.3c-1,1.2-1.9,2.4-2.8,3.6
				C186.8,76.1,187,76.2,187.1,76.3z"/>
			<path class="st0" d="M150.1,127.4c0.2,0.1,0.3,0.3,0.5,0.4c0.3-1.7,0.7-3.5,1.1-5.2c-0.2-0.1-0.3-0.3-0.5-0.4
				C150.8,124,150.4,125.7,150.1,127.4z"/>
			<path class="st0" d="M155.2,109.6c-0.1-0.1-0.3-0.2-0.5-0.3c-0.5,1.5-1,3-1.4,4.5c0.2,0.1,0.3,0.2,0.5,0.3
				C154.2,112.7,154.7,111.1,155.2,109.6z"/>
			<path class="st0" d="M159.7,97.6c-0.2-0.1-0.3-0.2-0.5-0.3c-0.6,1.4-1.2,2.8-1.8,4.2c0.2,0.1,0.3,0.2,0.5,0.3
				C158.5,100.4,159.1,99,159.7,97.6z"/>
			<path class="st0" d="M164.7,86c-0.7,1.3-1.4,2.7-2.1,4c0.2,0.1,0.3,0.2,0.5,0.3c0.7-1.4,1.4-2.7,2.1-4
				C165,86.1,164.9,86.1,164.7,86z"/>
			<path class="st0" d="M169.2,79.3c0.8-1.3,1.6-2.6,2.5-3.8c-0.2-0.1-0.3-0.2-0.5-0.3c-0.8,1.3-1.7,2.5-2.5,3.8
				C168.9,79.1,169.1,79.2,169.2,79.3z"/>
			<path class="st0" d="M176.3,68.9c0.9-1.2,1.9-2.4,2.8-3.6c-0.2-0.1-0.3-0.2-0.5-0.3c-1,1.2-1.9,2.4-2.8,3.6
				C176,68.7,176.2,68.8,176.3,68.9z"/>
			<path class="st0" d="M150.5,127.8c0.1,0.1,0.3,0.3,0.5,0.4c0.3-1.8,0.7-3.5,1.1-5.2c-0.2-0.1-0.3-0.3-0.5-0.4
				C151.2,124.4,150.9,126.1,150.5,127.8z"/>
			<path class="st0" d="M155.6,109.9c-0.2-0.1-0.3-0.2-0.4-0.3c-0.5,1.5-1,3-1.4,4.6c0.2,0.1,0.3,0.2,0.5,0.3
				C154.6,113,155.1,111.4,155.6,109.9z"/>
			<path class="st0" d="M160.1,97.9c-0.2-0.1-0.3-0.2-0.4-0.3c-0.6,1.4-1.2,2.8-1.8,4.3c0.2,0.1,0.3,0.2,0.5,0.3
				C158.9,100.7,159.5,99.3,160.1,97.9z"/>
			<path class="st0" d="M165.2,86.2c-0.7,1.3-1.4,2.7-2.1,4c0.2,0.1,0.3,0.2,0.5,0.3c0.7-1.4,1.4-2.7,2.1-4
				C165.5,86.4,165.3,86.3,165.2,86.2z"/>
			<path class="st0" d="M169.7,79.5c0.8-1.3,1.6-2.6,2.5-3.8c-0.1-0.1-0.3-0.2-0.5-0.3c-0.8,1.3-1.7,2.5-2.5,3.8
				C169.4,79.4,169.5,79.5,169.7,79.5z"/>
			<path class="st0" d="M176.8,69.1c0.9-1.2,1.9-2.4,2.8-3.6c-0.1-0.1-0.3-0.2-0.4-0.3c-1,1.2-1.9,2.4-2.8,3.6
				C176.5,68.9,176.6,69,176.8,69.1z"/>
		</g>
	</g>
</g>
</svg>
